<?xml version="1.0" encoding="utf-8"?>
<!-- Generator: Adobe Illustrator 24.1.1, SVG Export Plug-In . SVG Version: 6.00 Build 0)  -->
<svg version="1.1" xmlns="http://www.w3.org/2000/svg" xmlns:xlink="http://www.w3.org/1999/xlink" x="0px" y="0px"
	 viewBox="0 0 100 100" style="enable-background:new 0 0 100 100;" xml:space="preserve">
<style type="text/css">
	.st0{fill:none;stroke:#000000;stroke-width:0.25;stroke-miterlimit:10;}
	.st1{fill:#FFFFFF;stroke:#000000;stroke-width:0.25;stroke-miterlimit:10;}
	.st2{fill:#FFFFFF;}
	.st3{fill:none;}
</style>
<g id="Layer_2">
</g>
<g id="Layer_1">
	<g>
		<path class="st0" d="M29.05,45.05l3.33-33.02c0,0,23.89-3.77,46.52-1.26c0,0,5.03,60.35,1.26,84.23c0,0-44-1.26-49.03-1.26
			C31.12,93.74,26.98,68.01,29.05,45.05z"/>
		<g>
			<rect x="50.35" y="69.59" class="st1" width="49.41" height="25.41"/>
			<path class="st1" d="M41.88,83.71L50.35,95L41.88,83.71z"/>
			<polyline class="st1" points="50.59,69.69 42.12,58.4 50.59,69.69 			"/>
			<polyline class="st1" points="100,69.69 91.53,58.4 100,69.69 			"/>
			<path class="st1" d="M41.88,58.29H91.3H41.88z"/>
			<path class="st1" d="M41.88,83.71V58.29V83.71z"/>
			<path class="st1" d="M49.41,61.69c0,0-2.36,0-2.36-0.97c0-0.97,2.36-0.97,2.36-0.97s2.36,0,2.36,0.97
				C51.77,61.69,49.41,61.69,49.41,61.69"/>
			<path class="st1" d="M57.08,61.81c0,0-2.36,0-2.36-0.97c0-0.97,2.36-0.97,2.36-0.97s2.36,0,2.36,0.97
				C59.44,61.81,57.08,61.81,57.08,61.81"/>
			<path class="st1" d="M64.14,61.81c0,0-2.36,0-2.36-0.97c0-0.97,2.36-0.97,2.36-0.97s2.36,0,2.36,0.97
				C66.5,61.81,64.14,61.81,64.14,61.81"/>
			<path class="st1" d="M71.2,61.81c0,0-2.36,0-2.36-0.97c0-0.97,2.36-0.97,2.36-0.97s2.36,0,2.36,0.97
				C73.56,61.81,71.2,61.81,71.2,61.81"/>
			<path class="st1" d="M78.26,61.81c0,0-2.36,0-2.36-0.97c0-0.97,2.36-0.97,2.36-0.97s2.36,0,2.36,0.97
				C80.62,61.81,78.26,61.81,78.26,61.81"/>
			<path class="st1" d="M85.32,61.81c0,0-2.36,0-2.36-0.97c0-0.97,2.36-0.97,2.36-0.97s2.36,0,2.36,0.97
				C87.68,61.81,85.32,61.81,85.32,61.81"/>
			<path class="st1" d="M51.83,64.58c0,0-2.36,0-2.36-0.97c0-0.97,2.36-0.97,2.36-0.97s2.36,0,2.36,0.97
				C54.19,64.58,51.83,64.58,51.83,64.58"/>
			<path class="st1" d="M59.51,64.7c0,0-2.36,0-2.36-0.97c0-0.97,2.36-0.97,2.36-0.97s2.36,0,2.36,0.97
				C61.87,64.7,59.51,64.7,59.51,64.7"/>
			<path class="st1" d="M66.57,64.7c0,0-2.36,0-2.36-0.97s2.36-0.97,2.36-0.97s2.36,0,2.36,0.97C68.93,64.7,66.57,64.7,66.57,64.7"
				/>
			<path class="st1" d="M73.63,64.7c0,0-2.36,0-2.36-0.97s2.36-0.97,2.36-0.97s2.36,0,2.36,0.97C75.99,64.7,73.63,64.7,73.63,64.7"
				/>
			<path class="st1" d="M80.69,64.7c0,0-2.36,0-2.36-0.97s2.36-0.97,2.36-0.97s2.36,0,2.36,0.97C83.05,64.7,80.69,64.7,80.69,64.7"
				/>
			<path class="st1" d="M87.75,64.7c0,0-2.36,0-2.36-0.97c0-0.97,2.36-0.97,2.36-0.97s2.36,0,2.36,0.97
				C90.11,64.7,87.75,64.7,87.75,64.7"/>
			<path class="st1" d="M54.66,67.4c0,0-2.36,0-2.36-0.97c0-0.97,2.36-0.97,2.36-0.97s2.36,0,2.36,0.97
				C57.02,67.4,54.66,67.4,54.66,67.4"/>
			<path class="st1" d="M62.33,67.52c0,0-2.36,0-2.36-0.97c0-0.97,2.36-0.97,2.36-0.97s2.36,0,2.36,0.97S62.33,67.52,62.33,67.52"/>
			<path class="st1" d="M69.39,67.52c0,0-2.36,0-2.36-0.97c0-0.97,2.36-0.97,2.36-0.97s2.36,0,2.36,0.97S69.39,67.52,69.39,67.52"/>
			<path class="st1" d="M76.45,67.52c0,0-2.36,0-2.36-0.97c0-0.97,2.36-0.97,2.36-0.97s2.36,0,2.36,0.97S76.45,67.52,76.45,67.52"/>
			<path class="st1" d="M83.51,67.52c0,0-2.36,0-2.36-0.97c0-0.97,2.36-0.97,2.36-0.97s2.36,0,2.36,0.97S83.51,67.52,83.51,67.52"/>
			<path class="st1" d="M90.57,67.52c0,0-2.36,0-2.36-0.97c0-0.97,2.36-0.97,2.36-0.97s2.36,0,2.36,0.97S90.57,67.52,90.57,67.52"/>
			
				<rect x="3.66" y="56.28" transform="matrix(0.957 -0.2902 0.2902 0.957 -18.6056 12.4919)" class="st1" width="58.31" height="25.41"/>
			<path class="st1" d="M70.69,58.97l-6.29,13.71L70.69,58.97z"/>
			<polyline class="st1" points="56.8,48.54 63.09,34.83 56.8,48.54 			"/>
			<polyline class="st1" points="1,65.46 7.29,51.75 1,65.46 			"/>
			<path class="st1" d="M63.32,34.65L7.52,51.57L63.32,34.65z"/>
			<path class="st1" d="M70.69,58.97l-7.37-24.32L70.69,58.97z"/>
			<path class="st1" d="M55.81,40.48c0,0,2.67-0.81,2.38-1.73c-0.28-0.93-2.95-0.12-2.95-0.12s-2.67,0.81-2.38,1.73
				C53.15,41.29,55.81,40.48,55.81,40.48"/>
			<path class="st1" d="M47.18,43.23c0,0,2.67-0.81,2.38-1.73c-0.28-0.93-2.95-0.12-2.95-0.12s-2.67,0.81-2.38,1.73
				S47.18,43.23,47.18,43.23"/>
			<path class="st1" d="M39.21,45.65c0,0,2.67-0.81,2.38-1.73c-0.28-0.93-2.95-0.12-2.95-0.12s-2.67,0.81-2.38,1.73
				S39.21,45.65,39.21,45.65"/>
			<path class="st1" d="M31.24,48.06c0,0,2.67-0.81,2.38-1.73s-2.95-0.12-2.95-0.12s-2.67,0.81-2.38,1.73
				C28.57,48.87,31.24,48.06,31.24,48.06"/>
			<path class="st1" d="M23.26,50.48c0,0,2.67-0.81,2.38-1.73c-0.28-0.93-2.95-0.12-2.95-0.12s-2.67,0.81-2.38,1.73
				C20.6,51.29,23.26,50.48,23.26,50.48"/>
			<path class="st1" d="M15.29,52.9c0,0,2.67-0.81,2.38-1.73c-0.28-0.93-2.95-0.12-2.95-0.12s-2.67,0.81-2.38,1.73
				C12.63,53.71,15.29,52.9,15.29,52.9"/>
			<path class="st1" d="M53.91,44.07c0,0,2.67-0.81,2.38-1.73c-0.28-0.93-2.95-0.12-2.95-0.12s-2.67,0.81-2.38,1.73
				C51.24,44.88,53.91,44.07,53.91,44.07"/>
			<path class="st1" d="M45.27,46.82c0,0,2.67-0.81,2.38-1.73s-2.95-0.12-2.95-0.12s-2.67,0.81-2.38,1.73
				C42.61,47.63,45.27,46.82,45.27,46.82"/>
			<path class="st1" d="M37.3,49.24c0,0,2.67-0.81,2.38-1.73c-0.28-0.93-2.95-0.12-2.95-0.12s-2.67,0.81-2.38,1.73
				C34.64,50.04,37.3,49.24,37.3,49.24"/>
			<path class="st1" d="M29.33,51.65c0,0,2.67-0.81,2.38-1.73s-2.95-0.12-2.95-0.12s-2.67,0.81-2.38,1.73
				C26.67,52.46,29.33,51.65,29.33,51.65"/>
			<path class="st1" d="M21.36,54.07c0,0,2.67-0.81,2.38-1.73c-0.28-0.93-2.95-0.12-2.95-0.12s-2.67,0.81-2.38,1.73
				C18.69,54.88,21.36,54.07,21.36,54.07"/>
			<path class="st1" d="M13.39,56.49c0,0,2.67-0.81,2.38-1.73s-2.95-0.12-2.95-0.12s-2.67,0.81-2.38,1.73
				C10.72,57.3,13.39,56.49,13.39,56.49"/>
			<path class="st1" d="M51.54,47.74c0,0,2.67-0.81,2.38-1.73c-0.28-0.93-2.95-0.12-2.95-0.12s-2.67,0.81-2.38,1.73
				C48.87,48.55,51.54,47.74,51.54,47.74"/>
			<path class="st1" d="M42.91,50.49c0,0,2.67-0.81,2.38-1.73s-2.95-0.12-2.95-0.12s-2.67,0.81-2.38,1.73S42.91,50.49,42.91,50.49"
				/>
			<path class="st1" d="M34.93,52.91c0,0,2.67-0.81,2.38-1.73s-2.95-0.12-2.95-0.12s-2.67,0.81-2.38,1.73
				C32.27,53.71,34.93,52.91,34.93,52.91"/>
			<path class="st1" d="M26.96,55.32c0,0,2.67-0.81,2.38-1.73c-0.28-0.93-2.95-0.12-2.95-0.12s-2.67,0.81-2.38,1.73
				C24.3,56.13,26.96,55.32,26.96,55.32"/>
			<path class="st1" d="M18.99,57.74c0,0,2.67-0.81,2.38-1.73s-2.95-0.12-2.95-0.12s-2.67,0.81-2.38,1.73
				C16.33,58.55,18.99,57.74,18.99,57.74"/>
			<path class="st1" d="M11.02,60.16c0,0,2.67-0.81,2.38-1.73s-2.95-0.12-2.95-0.12s-2.67,0.81-2.38,1.73
				C8.35,60.97,11.02,60.16,11.02,60.16"/>
			<polygon class="st1" points="57.03,48.36 64.47,72.41 70.69,59.03 63.33,34.68 			"/>
		</g>
		<g>
			<g>
				<path class="st2" d="M28.83,46.2c0.05,0,0.11-0.01,0.16-0.02c0.01,0,0.03-0.01,0.04-0.01c0.02,0,0.03-0.01,0.05-0.01
					c0.07-0.01,0.12-0.05,0.17-0.1c0.01-0.01,0.02-0.02,0.03-0.03c0.02-0.02,0.03-0.04,0.05-0.06c0.03-0.05,0.03-0.08,0.04-0.14
					c0,0.02-0.01,0.04-0.01,0.07c0-0.03,0.01-0.06,0.01-0.08c0-0.05-0.02-0.1-0.04-0.14c-0.01-0.02-0.02-0.03-0.03-0.05
					c0.01,0.02,0.02,0.04,0.03,0.06c-0.01-0.03-0.02-0.06-0.04-0.08c-0.02-0.04-0.06-0.08-0.1-0.11c-0.05-0.03-0.09-0.04-0.15-0.04
					c-0.01,0-0.03,0-0.04,0c0.02,0,0.04,0.01,0.07,0.01c0,0-0.01,0-0.01,0c0.02,0.01,0.04,0.02,0.06,0.03c0,0,0,0-0.01,0
					c0.02,0.01,0.03,0.03,0.05,0.04c0,0,0,0,0,0c0.01,0.02,0.03,0.03,0.04,0.05c0,0,0,0,0,0c0.01,0.02,0.02,0.04,0.03,0.06
					c0,0,0,0,0,0c0,0.02,0.01,0.04,0.01,0.07c0,0,0,0,0,0c0,0.02-0.01,0.04-0.01,0.07c0,0,0,0,0,0c-0.01,0.02-0.02,0.04-0.03,0.06
					c0,0,0,0,0,0c-0.01,0.02-0.03,0.03-0.04,0.05c0,0,0.01-0.01,0.01-0.01c-0.02,0.01-0.03,0.03-0.05,0.04
					c0.04-0.03,0.08-0.06,0.12-0.1c-0.02,0.01-0.03,0.03-0.05,0.04c0,0,0.01,0,0.01,0c-0.02,0.01-0.04,0.02-0.06,0.03
					c0.03-0.01,0.05-0.02,0.07-0.03c0.05-0.03,0.1-0.09,0.11-0.15c0.01-0.03,0.01-0.07,0-0.1c0-0.03-0.01-0.06-0.03-0.09
					c-0.03-0.05-0.09-0.1-0.15-0.11c-0.07-0.01-0.13-0.01-0.19,0.03c0,0,0,0,0,0c0.02-0.01,0.04-0.02,0.06-0.03
					c-0.02,0.01-0.05,0.02-0.07,0.03c-0.02,0.01-0.04,0.03-0.05,0.04c0,0-0.01,0.01-0.01,0.01c-0.01,0.01-0.03,0.02-0.04,0.04
					c0.02-0.01,0.03-0.03,0.05-0.04c-0.03,0.02-0.05,0.04-0.08,0.06c-0.01,0.01-0.03,0.04-0.04,0.05c-0.02,0.03-0.03,0.06-0.03,0.1
					c-0.01,0.04-0.01,0.03,0,0.07c0.01,0.04,0.01,0.06,0.03,0.1c0.04,0.06,0.1,0.11,0.17,0.13c0.05,0.01,0.07,0.01,0.11,0.01
					c-0.02,0-0.04-0.01-0.07-0.01c0,0,0.01,0,0.01,0c-0.02-0.01-0.04-0.02-0.06-0.03c0,0,0.01,0,0.01,0
					c-0.02-0.01-0.03-0.03-0.05-0.04c0,0,0,0,0.01,0.01c-0.01-0.02-0.03-0.03-0.04-0.05c0,0.01,0.01,0.01,0.01,0.02
					c-0.01-0.02-0.02-0.04-0.03-0.06c0.01,0.03,0.02,0.06,0.04,0.09c0.01,0.01,0.01,0.02,0.02,0.03c-0.01-0.02-0.02-0.04-0.03-0.06
					c0,0,0,0,0,0c0-0.02-0.01-0.04-0.01-0.07c0,0,0,0,0,0.01c0-0.02,0.01-0.04,0.01-0.07c-0.01,0.03-0.01,0.06-0.01,0.09
					c0-0.02,0.01-0.04,0.01-0.07c0,0,0,0,0,0c0.01-0.02,0.02-0.04,0.03-0.06c0,0,0,0.01-0.01,0.01c0.01-0.02,0.03-0.03,0.04-0.05
					c-0.01,0.02-0.03,0.03-0.05,0.05c0.02-0.01,0.03-0.03,0.05-0.04c-0.01,0.01-0.01,0.01-0.02,0.01c0.02-0.01,0.04-0.02,0.06-0.03
					c-0.03,0.01-0.05,0.01-0.08,0.02c-0.03,0.01-0.06,0.02-0.09,0.02c0.02,0,0.04-0.01,0.07-0.01c-0.01,0-0.03,0-0.04,0
					c-0.06,0-0.13,0.03-0.18,0.07c-0.02,0.02-0.04,0.05-0.05,0.08c-0.02,0.03-0.02,0.06-0.02,0.1c0,0.06,0.02,0.13,0.07,0.18
					C28.7,46.17,28.76,46.2,28.83,46.2L28.83,46.2z"/>
			</g>
		</g>
		<g>
			<g>
				<path class="st2" d="M29.46,45.6C29.46,45.6,29.46,45.6,29.46,45.6c0-0.02-0.01-0.05-0.01-0.07c-0.01-0.02-0.02-0.04-0.03-0.06
					c0-0.01-0.01-0.02-0.02-0.03c-0.01-0.02-0.01-0.02-0.02-0.03c-0.01-0.01-0.04-0.03-0.05-0.04c0.02,0.01,0.03,0.03,0.05,0.04
					c0,0,0,0,0,0c0.01,0.02,0.03,0.03,0.04,0.05c0,0,0,0,0,0c0.01,0.04,0.02,0.08,0.03,0.13c0,0,0,0,0,0c0,0.02-0.01,0.04-0.01,0.07
					c0,0,0,0,0,0c-0.01,0.02-0.02,0.04-0.03,0.06c0,0,0-0.01,0-0.01c-0.01,0.02-0.03,0.03-0.04,0.05c0.02-0.02,0.04-0.04,0.05-0.07
					c0.01-0.01,0.01-0.02,0.01-0.03c0.01-0.01,0.01-0.02,0.01-0.03C29.46,45.61,29.46,45.61,29.46,45.6c0,0.02-0.01,0.04-0.02,0.06
					c0,0,0-0.01,0.01-0.01c-0.01,0.02-0.03,0.03-0.04,0.05c0-0.01,0.01-0.01,0.01-0.02c0.01-0.02,0.03-0.04,0.04-0.06
					c0,0,0-0.01,0.01-0.01c-0.01,0.02-0.03,0.03-0.04,0.05c0,0,0.01-0.01,0.01-0.01c0.01-0.01,0.04-0.04,0.04-0.05
					c0.01-0.01,0.02-0.05,0.03-0.06c0-0.02,0.01-0.04,0.01-0.07c0-0.02-0.01-0.04-0.01-0.07c0,0,0,0,0,0
					c-0.01-0.02-0.02-0.04-0.03-0.06c0,0,0,0,0,0c-0.01-0.02-0.03-0.03-0.04-0.05c-0.02-0.01-0.03-0.03-0.05-0.04
					c-0.03-0.02-0.06-0.03-0.09-0.03c-0.04-0.01-0.03-0.01-0.07,0c-0.02,0-0.02,0-0.04,0.01c-0.01,0-0.02,0.01-0.03,0.01
					c-0.01,0-0.02,0.01-0.03,0.01c-0.02,0.01-0.03,0.03-0.05,0.04c0,0,0,0,0,0c-0.01,0.01-0.01,0.01-0.02,0.02
					c0.02-0.01,0.03-0.03,0.05-0.04c-0.01,0.01-0.02,0.02-0.04,0.03c-0.01,0-0.01,0.01-0.02,0.01c-0.01,0-0.01,0.01-0.02,0.01
					c0.02-0.01,0.04-0.02,0.06-0.03c0,0-0.01,0-0.01,0c-0.02,0.01-0.05,0.02-0.07,0.03c0.02-0.01,0.04-0.02,0.06-0.03c0,0,0,0,0,0
					c0.02,0,0.04-0.01,0.07-0.01c-0.03,0-0.05,0-0.08,0.01c-0.02,0.01-0.05,0.02-0.07,0.03c0.02-0.01,0.04-0.02,0.06-0.03
					c0,0,0,0-0.01,0c0.02,0,0.04-0.01,0.07-0.01c-0.03,0-0.06,0-0.08,0.01c-0.03,0.01-0.05,0.02-0.07,0.03
					c0.02-0.01,0.04-0.02,0.06-0.03c0,0,0,0,0,0c0.02,0,0.04-0.01,0.07-0.01c0,0,0,0,0,0c0.02,0,0.04,0.01,0.07,0.01c0,0,0,0,0,0
					c0.05,0.12,0.1,0.24,0.15,0.37c0,0,0,0,0,0c-0.01,0.02-0.03,0.03-0.04,0.05c0,0,0,0,0,0c-0.02,0.01-0.03,0.03-0.05,0.04
					c0,0,0,0,0,0c-0.02,0.01-0.04,0.02-0.06,0.03c0.03-0.01,0.05-0.02,0.08-0.03c0.01,0,0.02-0.01,0.02-0.02
					c-0.02,0.01-0.04,0.02-0.06,0.03c0.01,0,0.02-0.01,0.03-0.01c0,0,0,0,0.01,0c0.02-0.01,0.04-0.02,0.06-0.03c0,0,0,0,0,0
					c0,0,0,0,0.01,0c0.02-0.01,0.03-0.03,0.05-0.04c0,0,0,0,0,0c0.03-0.03,0.05-0.07,0.06-0.11c0.01-0.04,0.01-0.09,0-0.13
					c-0.01-0.04-0.03-0.08-0.06-0.11c-0.01-0.01-0.04-0.03-0.05-0.04c-0.02-0.01-0.04-0.02-0.06-0.03c-0.01,0-0.02,0-0.04,0
					c-0.04-0.01-0.06-0.01-0.1,0c0,0,0,0,0,0c-0.02,0.01-0.04,0.02-0.06,0.03C29.01,45.3,29,45.31,29,45.32
					c-0.01,0.01-0.02,0.01-0.03,0.02c-0.02,0.02-0.03,0.04-0.05,0.06c0.01-0.02,0.03-0.03,0.04-0.05c0,0-0.01,0.01-0.01,0.01
					c0.02-0.01,0.03-0.03,0.05-0.04c-0.01,0.01-0.02,0.01-0.03,0.02c0.02-0.01,0.04-0.02,0.06-0.03c-0.01,0-0.02,0.01-0.03,0.01
					c0,0-0.01,0-0.01,0c-0.01,0-0.02,0.01-0.04,0.01c-0.01,0-0.02,0.01-0.03,0.02c-0.03,0.02-0.05,0.04-0.07,0.06
					c-0.02,0.02-0.04,0.05-0.04,0.09c-0.01,0.03-0.01,0.07,0,0.1c0,0.03,0.01,0.06,0.03,0.09c0.01,0.02,0.03,0.03,0.04,0.05
					c0.03,0.03,0.07,0.05,0.11,0.06c0.02,0,0.04,0.01,0.07,0.01c0.05,0,0.09-0.01,0.13-0.03c0.02-0.01,0.05-0.03,0.07-0.05
					c0-0.01,0.01-0.01,0.02-0.02c-0.02,0.01-0.03,0.03-0.05,0.04c0,0,0.01,0,0.01-0.01c-0.02,0.01-0.04,0.02-0.06,0.03
					c0,0,0.01,0,0.01,0c-0.02,0-0.04,0.01-0.07,0.01c0,0,0.01,0,0.01,0c0.03,0,0.07-0.01,0.1-0.02c0.03-0.01,0.06-0.03,0.08-0.05
					c0.02-0.02,0.04-0.05,0.05-0.08c0.02-0.03,0.02-0.06,0.02-0.1c0-0.02-0.01-0.04-0.01-0.07c-0.01-0.04-0.03-0.08-0.06-0.11
					c-0.02-0.01-0.03-0.03-0.05-0.04c-0.04-0.02-0.08-0.03-0.13-0.03c-0.04,0-0.1,0.02-0.14,0.04c-0.02,0.01-0.04,0.03-0.06,0.05
					c0.02-0.01,0.03-0.03,0.05-0.04c0,0-0.01,0-0.01,0.01c0.02-0.01,0.04-0.02,0.06-0.03c0,0,0,0-0.01,0c0.02,0,0.04-0.01,0.07-0.01
					c0,0-0.01,0-0.01,0c-0.01,0-0.02,0-0.04,0c-0.01,0-0.02,0-0.04,0.01c-0.01,0-0.01,0-0.02,0.01c0.02,0,0.04-0.01,0.07-0.01
					c0,0,0,0,0,0c-0.03,0-0.07,0.01-0.1,0.02c-0.03,0.01-0.06,0.03-0.08,0.05c-0.02,0.02-0.04,0.05-0.05,0.08
					c-0.02,0.03-0.02,0.06-0.02,0.1c0,0.02,0.01,0.04,0.01,0.07c0.01,0.04,0.03,0.08,0.06,0.11c0.02,0.01,0.03,0.03,0.05,0.04
					c0.04,0.02,0.08,0.03,0.13,0.03c0.01,0,0.02,0,0.04,0c0.01,0,0.02,0,0.04-0.01c0.01,0,0.02-0.01,0.03-0.01
					c0.01,0,0.02-0.01,0.03-0.01c0.01,0,0.01-0.01,0.02-0.01c-0.02,0.01-0.04,0.02-0.06,0.03c0,0,0,0,0.01,0
					c-0.02,0-0.04,0.01-0.07,0.01c0.01,0,0.01,0,0.02,0c0,0,0.01,0,0.01,0c0.02,0,0.05-0.01,0.07-0.01c0.01,0,0.03-0.01,0.04-0.01
					c0.03-0.01,0.06-0.02,0.09-0.04c0.03-0.02,0.05-0.04,0.06-0.07c0.02-0.03,0.03-0.06,0.03-0.09c0.01-0.03,0.01-0.07,0-0.1
					c-0.01-0.02-0.02-0.04-0.03-0.06c-0.02-0.04-0.05-0.07-0.09-0.09c-0.02-0.01-0.04-0.02-0.06-0.03c-0.04-0.01-0.09-0.01-0.13,0
					c-0.02,0-0.03,0.01-0.05,0.01c0.02,0,0.04-0.01,0.07-0.01c-0.01,0-0.01,0-0.02,0c-0.03,0-0.06,0-0.08,0.01
					c-0.01,0-0.02,0.01-0.04,0.01c-0.01,0-0.03,0.01-0.04,0.02c0,0-0.01,0.01-0.01,0.01c0.02-0.01,0.04-0.02,0.06-0.03
					c0,0,0,0-0.01,0c0.02,0,0.04-0.01,0.07-0.01c0,0,0,0,0,0c0,0.17,0,0.33,0,0.5c0.02,0,0.05,0,0.07-0.01c0,0,0.01,0,0.01,0
					c0.01,0,0.01,0,0.02,0c-0.02,0-0.04,0.01-0.07,0.01c0,0,0.01,0,0.01,0c0.06,0,0.08-0.01,0.13-0.04
					c0.02-0.01,0.05-0.03,0.07-0.05c-0.02,0.01-0.03,0.03-0.05,0.04c0,0,0.01,0,0.01-0.01c-0.02,0.01-0.04,0.02-0.06,0.03
					c0,0,0,0,0,0c-0.02,0-0.04,0.01-0.07,0.01c0,0,0,0,0.01,0c0-0.17,0-0.33,0-0.5c-0.03,0-0.06,0-0.09,0.01
					c-0.05,0.01-0.06,0.02-0.1,0.05c-0.01,0.01-0.03,0.02-0.04,0.03c0,0-0.01,0.01-0.01,0.01c0.02-0.01,0.03-0.03,0.05-0.04
					c0,0,0,0-0.01,0c0.08,0.14,0.17,0.29,0.25,0.43c0,0,0,0,0.01,0c-0.02,0.01-0.04,0.02-0.06,0.03c0.01,0,0.02-0.01,0.03-0.01
					c0.03-0.01,0.06-0.02,0.09-0.04c0.02-0.01,0.03-0.02,0.05-0.03c0.01-0.01,0.02-0.02,0.03-0.02c0,0,0,0,0,0
					c0.01-0.02,0.03-0.03,0.04-0.05c0,0,0-0.01,0.01-0.01c-0.01,0.02-0.03,0.03-0.04,0.05c0,0,0,0,0,0
					c-0.02,0.01-0.03,0.03-0.05,0.04c0,0,0,0,0,0c-0.02,0.01-0.04,0.02-0.06,0.03c0,0,0,0,0,0c-0.02,0-0.04,0.01-0.07,0.01
					c0,0,0,0,0,0c-0.02,0-0.04-0.01-0.07-0.01c0,0,0,0,0,0c-0.02-0.01-0.04-0.02-0.06-0.03c0,0,0,0,0,0
					c-0.02-0.01-0.03-0.03-0.05-0.04c0,0,0,0,0,0c-0.02-0.04-0.04-0.07-0.06-0.11c0,0,0,0,0,0c0.02-0.08,0.04-0.16,0.06-0.24
					c0,0,0,0,0,0c0.02-0.01,0.03-0.03,0.05-0.04c0,0-0.01,0-0.01,0.01c0.02-0.01,0.04-0.02,0.06-0.03c-0.01,0-0.02,0.01-0.04,0.01
					c-0.03,0.01-0.05,0.02-0.08,0.03c-0.01,0-0.01,0.01-0.02,0.01c0.02-0.01,0.04-0.02,0.06-0.03c-0.02,0.01-0.05,0.02-0.07,0.03
					c-0.05,0.03-0.07,0.05-0.1,0.1c-0.02,0.04-0.03,0.08-0.03,0.13c0,0.03,0.01,0.07,0.02,0.1c0.01,0.03,0.03,0.06,0.05,0.08
					c0.03,0.03,0.07,0.05,0.11,0.06c0.01,0,0.02,0,0.04,0.01c0.01,0,0.02,0.01,0.04,0c0.02,0,0.04-0.01,0.07-0.01
					c0.01,0,0.02-0.01,0.03-0.01c0.02-0.01,0.03-0.01,0.04-0.02c-0.02,0.01-0.04,0.02-0.06,0.03c0,0,0,0,0.01,0
					c-0.02,0-0.04,0.01-0.07,0.01c0.03,0,0.05,0,0.08-0.01c0.02-0.01,0.05-0.02,0.07-0.03c-0.02,0.01-0.04,0.02-0.06,0.03
					c0,0,0.01,0,0.01,0c-0.02,0-0.04,0.01-0.07,0.01c0.03,0,0.05,0,0.08-0.01c0.01,0,0.05-0.02,0.06-0.03c0,0,0,0,0.01,0
					c-0.02,0.01-0.04,0.02-0.06,0.03c0.01,0,0.01,0,0.02,0c0.02-0.01,0.04-0.02,0.06-0.03c0,0,0,0,0,0c0,0,0,0,0.01,0
					c0.01-0.01,0.02-0.01,0.03-0.02c0.03-0.02,0.05-0.04,0.08-0.06c0.01-0.01,0.01-0.01,0.02-0.02c-0.02,0.01-0.03,0.03-0.05,0.04
					c0,0,0,0,0,0c-0.02,0.01-0.04,0.02-0.06,0.03c0,0,0,0,0,0c-0.02,0-0.04,0.01-0.07,0.01c0,0,0,0,0,0
					c-0.07-0.04-0.14-0.08-0.22-0.12c0,0,0,0,0,0c-0.01-0.02-0.02-0.04-0.03-0.06c0,0,0,0,0,0c0-0.04,0-0.09,0-0.13c0,0,0,0,0,0
					c0.01-0.02,0.02-0.04,0.03-0.06c0,0,0,0,0,0c0.01-0.02,0.03-0.03,0.04-0.05c-0.01,0.01-0.02,0.02-0.03,0.03
					c-0.01,0.02-0.02,0.02-0.02,0.03c0,0,0,0.01-0.01,0.01c0.01-0.02,0.03-0.03,0.04-0.05c-0.02,0.02-0.04,0.05-0.06,0.07
					c0,0,0,0,0,0.01c-0.01,0.02-0.02,0.05-0.03,0.06c0,0.01,0,0.01,0,0.02c0.01-0.02,0.02-0.04,0.03-0.06c0,0,0,0.01-0.01,0.01
					c0.01-0.02,0.03-0.03,0.04-0.05c-0.02,0.02-0.03,0.04-0.05,0.06c0,0,0,0,0,0.01c0,0.01-0.01,0.02-0.01,0.03
					c-0.01,0.01-0.01,0.02-0.01,0.03c0,0.02-0.01,0.04-0.01,0.07c0,0,0,0,0,0c0,0.03,0.01,0.07,0.02,0.1c0,0.01,0.01,0.02,0.01,0.03
					c0.02,0.05,0.05,0.07,0.1,0.1c-0.02-0.01-0.03-0.03-0.05-0.04c0,0,0,0,0,0c-0.01-0.02-0.03-0.03-0.04-0.05c0,0,0,0,0,0
					c-0.01-0.04-0.02-0.08-0.03-0.13c0,0,0,0,0,0c0,0.03,0.01,0.07,0.02,0.1c0.01,0.03,0.03,0.06,0.05,0.08
					c0.02,0.02,0.05,0.04,0.08,0.05c0.03,0.02,0.06,0.02,0.1,0.02c0.02,0,0.04-0.01,0.07-0.01c0.04-0.01,0.08-0.03,0.11-0.06
					c0.01-0.02,0.03-0.03,0.04-0.05C29.45,45.69,29.46,45.65,29.46,45.6L29.46,45.6z"/>
			</g>
		</g>
		<g>
			<g>
				<path class="st2" d="M28.27,46.7c0.06,0.02,0.11,0.02,0.17,0.01c0.06-0.02,0.09-0.04,0.14-0.08c-0.02,0.01-0.03,0.03-0.05,0.04
					c0.03-0.02,0.05-0.03,0.08-0.06c0.01-0.01,0.02-0.02,0.04-0.03c-0.02,0.01-0.03,0.03-0.05,0.04c0.02-0.01,0.04-0.02,0.06-0.03
					c-0.02,0.01-0.04,0.02-0.06,0.03c0.04-0.02,0.08-0.03,0.11-0.04c0.04-0.02,0.07-0.04,0.1-0.07c-0.02,0.01-0.03,0.03-0.05,0.04
					c0.02-0.02,0.05-0.03,0.07-0.04c0.02-0.01,0.05-0.03,0.07-0.04c-0.02,0.01-0.04,0.02-0.06,0.03c0.04-0.02,0.08-0.03,0.12-0.05
					c-0.02,0.01-0.04,0.02-0.06,0.03c0.05-0.02,0.1-0.04,0.15-0.06c-0.02,0.01-0.04,0.02-0.06,0.03c0.05-0.01,0.09-0.04,0.13-0.07
					c0.04-0.05,0.08-0.11,0.07-0.18c0-0.06-0.02-0.11-0.05-0.15c-0.08-0.1-0.21-0.13-0.32-0.06c-0.04,0.03-0.08,0.06-0.11,0.11
					c-0.02,0.03-0.02,0.06-0.04,0.09c0.01-0.02,0.02-0.04,0.03-0.06c0,0.01-0.01,0.02-0.01,0.02c0.01-0.02,0.03-0.03,0.04-0.05
					c-0.01,0.01-0.02,0.02-0.04,0.03c0.02-0.01,0.03-0.03,0.05-0.04c-0.05,0.03-0.08,0.07-0.12,0.11c-0.02,0.03-0.05,0.06-0.08,0.08
					c0.02-0.01,0.03-0.03,0.05-0.04c-0.03,0.02-0.07,0.04-0.1,0.06c-0.07,0.04-0.11,0.09-0.16,0.15c0.01-0.02,0.03-0.03,0.04-0.05
					c-0.05,0.06-0.1,0.12-0.09,0.2c0,0.09,0.05,0.18,0.13,0.23c0.06,0.04,0.14,0.05,0.21,0.03c0.06-0.02,0.09-0.05,0.14-0.09
					c-0.02,0.01-0.03,0.03-0.05,0.04c0.03-0.02,0.07-0.04,0.1-0.06c0.06-0.04,0.1-0.09,0.15-0.15c-0.01,0.02-0.03,0.03-0.04,0.05
					c0.01-0.01,0.01-0.01,0.02-0.02c-0.02,0.01-0.03,0.03-0.05,0.04c0.03-0.02,0.05-0.04,0.08-0.05c-0.08-0.14-0.17-0.29-0.25-0.43
					c-0.03,0.02-0.05,0.04-0.08,0.06c-0.02,0.02-0.04,0.05-0.06,0.07c0.01-0.02,0.03-0.03,0.04-0.05c-0.02,0.02-0.04,0.05-0.06,0.07
					c0.01-0.02,0.03-0.03,0.04-0.05c-0.01,0.01-0.01,0.01-0.02,0.02c0.02-0.01,0.03-0.03,0.05-0.04c-0.02,0.02-0.04,0.03-0.07,0.04
					c-0.02,0.02-0.04,0.03-0.06,0.05c0.02-0.01,0.03-0.03,0.05-0.04c-0.03,0.02-0.06,0.05-0.08,0.07c0.02-0.01,0.03-0.03,0.05-0.04
					c-0.02,0.01-0.03,0.02-0.05,0.03c-0.05,0.03-0.08,0.07-0.12,0.12c0.01-0.02,0.03-0.03,0.04-0.05c-0.04,0.05-0.08,0.09-0.09,0.15
					c-0.04,0.13,0.04,0.28,0.18,0.32c0.07,0.02,0.15,0.01,0.22-0.03c0.04-0.02,0.06-0.05,0.09-0.08c-0.02,0.01-0.03,0.03-0.05,0.04
					c0.03-0.02,0.06-0.04,0.08-0.06c-0.02,0.01-0.03,0.03-0.05,0.04c0.03-0.02,0.06-0.04,0.08-0.06c0.02-0.02,0.04-0.05,0.06-0.08
					c-0.01,0.02-0.03,0.03-0.04,0.05c0.02-0.02,0.04-0.04,0.06-0.06c-0.02,0.01-0.03,0.03-0.05,0.04c0.01-0.01,0.03-0.02,0.04-0.03
					c-0.02,0.01-0.04,0.02-0.06,0.03c0.04-0.01,0.07-0.02,0.1-0.05c-0.1-0.13-0.2-0.26-0.3-0.39c0,0.01-0.01,0.01-0.02,0.01
					c0.02-0.01,0.03-0.03,0.05-0.04c-0.03,0.02-0.06,0.04-0.08,0.06c-0.02,0.02-0.04,0.05-0.06,0.08c0.01-0.02,0.03-0.03,0.04-0.05
					c0,0,0,0-0.01,0.01c0.04-0.02,0.07-0.04,0.11-0.06c-0.05,0.02-0.09,0.03-0.12,0.07c-0.02,0.02-0.04,0.05-0.06,0.07
					c0.01-0.02,0.03-0.03,0.04-0.05c-0.02,0.03-0.04,0.06-0.07,0.09c0.01-0.02,0.03-0.03,0.04-0.05c0,0,0,0-0.01,0.01
					c0.02-0.01,0.03-0.03,0.05-0.04c0,0-0.01,0.01-0.01,0.01c0.02-0.01,0.04-0.02,0.06-0.03c-0.03,0.01-0.07,0.03-0.1,0.04
					c-0.03,0.01-0.06,0.04-0.08,0.06c0.02-0.01,0.03-0.03,0.05-0.04c-0.03,0.02-0.05,0.04-0.08,0.06c0.02-0.01,0.03-0.03,0.05-0.04
					c-0.02,0.01-0.04,0.02-0.06,0.04c-0.03,0.03-0.06,0.06-0.08,0.09c0.01-0.02,0.03-0.03,0.04-0.05c0,0-0.01,0.01-0.01,0.01
					c0.02-0.01,0.03-0.03,0.05-0.04c-0.06,0.05-0.11,0.09-0.13,0.17c-0.02,0.08,0,0.18,0.06,0.24c0.05,0.04,0.09,0.07,0.16,0.07
					c0.08,0.01,0.16-0.02,0.22-0.07c0.02-0.02,0.04-0.04,0.06-0.06c-0.02,0.01-0.03,0.03-0.05,0.04c0.03-0.02,0.07-0.05,0.1-0.07
					c-0.02,0.01-0.03,0.03-0.05,0.04c0,0,0.01-0.01,0.01-0.01c-0.02,0.01-0.04,0.02-0.06,0.03c0.06-0.01,0.11-0.05,0.15-0.08
					c0.02-0.01,0.04-0.03,0.05-0.05c0.02-0.02,0.04-0.05,0.06-0.08c-0.01,0.02-0.03,0.03-0.04,0.05c0,0,0.01-0.01,0.01-0.01
					c-0.02,0.01-0.03,0.03-0.05,0.04c0.01,0,0.01-0.01,0.02-0.01c-0.02,0.01-0.04,0.02-0.06,0.03c0.02-0.01,0.03-0.01,0.05-0.01
					c0.06-0.01,0.09-0.04,0.13-0.08c-0.02,0.01-0.03,0.03-0.05,0.04c0,0,0.01-0.01,0.01-0.01c-0.02,0.01-0.04,0.02-0.06,0.03
					c0.05-0.01,0.09-0.04,0.13-0.07c0.02-0.02,0.04-0.05,0.06-0.07c-0.01,0.02-0.03,0.03-0.04,0.05c0.02-0.03,0.05-0.04,0.07-0.08
					c0.06-0.1,0.04-0.23-0.04-0.31c-0.05-0.04-0.11-0.07-0.18-0.07c-0.06,0-0.13,0.03-0.18,0.07c-0.09,0.1-0.1,0.26,0,0.35
					c0,0,0,0,0,0c-0.02-0.06-0.05-0.12-0.07-0.18c0,0,0,0,0,0c0.01-0.04,0.02-0.08,0.03-0.13c0,0,0,0,0,0
					c0.01-0.02,0.03-0.03,0.04-0.05c-0.03,0.03-0.05,0.05-0.07,0.09c0.01-0.02,0.03-0.03,0.04-0.05c0,0.01-0.01,0.01-0.02,0.02
					c0.02-0.01,0.03-0.03,0.05-0.04c0,0,0,0-0.01,0c0.02-0.01,0.04-0.02,0.06-0.03c-0.06,0.02-0.09,0.04-0.14,0.08
					c0.02-0.01,0.03-0.03,0.05-0.04c0,0,0,0-0.01,0c0.02-0.01,0.04-0.02,0.06-0.03c-0.01,0-0.03,0.01-0.04,0.01
					c-0.03,0.01-0.06,0.02-0.09,0.04c-0.06,0.03-0.09,0.08-0.13,0.14c0.01-0.02,0.03-0.03,0.04-0.05c-0.01,0.01-0.02,0.02-0.03,0.03
					c0.02-0.01,0.03-0.03,0.05-0.04c-0.02,0.01-0.03,0.02-0.05,0.03c0.02-0.01,0.04-0.02,0.06-0.03c-0.07,0.02-0.09,0.04-0.15,0.08
					c0.02-0.01,0.03-0.03,0.05-0.04c-0.04,0.03-0.07,0.05-0.11,0.08c-0.02,0.01-0.03,0.04-0.05,0.05c0.04-0.02,0.07-0.04,0.11-0.06
					c0,0,0,0-0.01,0c0.04,0,0.09,0,0.13,0c0,0,0,0-0.01,0c0.04,0.02,0.07,0.04,0.11,0.06c0,0,0,0-0.01-0.01
					c0.02,0.08,0.04,0.16,0.06,0.24c0,0,0,0,0-0.01c-0.02,0.04-0.04,0.07-0.06,0.11c0,0,0.01-0.01,0.01-0.01
					c-0.02,0.01-0.03,0.03-0.05,0.04c0.02-0.02,0.05-0.03,0.06-0.05c0.02-0.02,0.04-0.05,0.05-0.07c-0.01,0.02-0.03,0.03-0.04,0.05
					c0,0,0,0,0.01-0.01c-0.02,0.01-0.03,0.03-0.05,0.04c0.03-0.02,0.06-0.04,0.09-0.07c-0.02,0.01-0.03,0.03-0.05,0.04
					c0.03-0.02,0.05-0.04,0.08-0.06c-0.02,0.01-0.03,0.03-0.05,0.04c0.01-0.01,0.02-0.01,0.03-0.01c-0.02,0.01-0.04,0.02-0.06,0.03
					c0.03-0.01,0.07-0.03,0.1-0.04c0.05-0.03,0.08-0.07,0.11-0.12c-0.01,0.02-0.03,0.03-0.04,0.05c0.02-0.02,0.04-0.05,0.06-0.07
					c-0.01,0.02-0.03,0.03-0.04,0.05c0-0.01,0.01-0.01,0.02-0.02c-0.04,0.02-0.07,0.04-0.11,0.06c0.03-0.01,0.07-0.03,0.1-0.05
					c0.03-0.02,0.05-0.05,0.08-0.08c-0.01,0.02-0.03,0.03-0.04,0.05c0.01-0.01,0.01-0.02,0.02-0.03c-0.02,0.01-0.03,0.03-0.05,0.04
					c0.03-0.02,0.06-0.04,0.09-0.07c0.09-0.09,0.09-0.23,0.02-0.33c-0.07-0.09-0.22-0.13-0.32-0.06c-0.01,0-0.01,0.01-0.02,0.01
					c0.02-0.01,0.04-0.02,0.06-0.03c-0.12,0.03-0.22,0.12-0.29,0.22c0.01-0.02,0.03-0.03,0.04-0.05c-0.01,0.01-0.02,0.02-0.03,0.03
					c0.02-0.01,0.03-0.03,0.05-0.04c-0.03,0.02-0.05,0.04-0.07,0.06c0.02-0.01,0.03-0.03,0.05-0.04c-0.04,0.03-0.07,0.05-0.1,0.08
					c0.02-0.01,0.03-0.03,0.05-0.04c-0.01,0-0.01,0.01-0.02,0.01c0.02-0.01,0.04-0.02,0.06-0.03c0,0-0.01,0-0.01,0
					c0.02,0,0.04-0.01,0.07-0.01c0,0,0,0,0,0c0.02,0,0.04,0.01,0.07,0.01c0,0,0,0,0,0c0.04,0.02,0.07,0.04,0.11,0.06c0,0,0,0,0,0
					c0.02,0.06,0.05,0.12,0.07,0.18c0,0,0,0,0,0c0,0.02-0.01,0.04-0.01,0.07c0,0,0,0,0-0.01c-0.01,0.02-0.02,0.04-0.03,0.06
					c0,0,0,0,0-0.01c-0.01,0.02-0.03,0.03-0.04,0.05c0.02-0.03,0.05-0.05,0.07-0.08c-0.01,0.02-0.03,0.03-0.04,0.05
					c0.01-0.01,0.01-0.01,0.02-0.02c-0.02,0.01-0.03,0.03-0.05,0.04c0.02-0.01,0.03-0.02,0.05-0.03c0.03-0.02,0.05-0.04,0.08-0.06
					c-0.02,0.01-0.03,0.03-0.05,0.04c0.03-0.02,0.06-0.05,0.09-0.08c-0.02,0.01-0.03,0.03-0.05,0.04c0.02-0.02,0.04-0.03,0.07-0.04
					c0.04-0.03,0.06-0.05,0.09-0.1c-0.01,0.02-0.03,0.03-0.04,0.05c0.02-0.03,0.04-0.05,0.06-0.08c-0.01,0.02-0.03,0.03-0.04,0.05
					c0.01-0.01,0.02-0.02,0.03-0.03c-0.02,0.01-0.03,0.03-0.05,0.04c0,0,0,0,0.01-0.01c0.05-0.04,0.1-0.08,0.11-0.15
					c0.02-0.06,0.01-0.14-0.03-0.19c-0.08-0.12-0.22-0.16-0.34-0.09c-0.02,0.01-0.05,0.03-0.07,0.04c-0.02,0.02-0.05,0.03-0.07,0.06
					c-0.02,0.02-0.04,0.05-0.06,0.07c0.01-0.02,0.03-0.03,0.04-0.05c-0.01,0.01-0.02,0.03-0.04,0.04c0.02-0.01,0.03-0.03,0.05-0.04
					c-0.06,0.04-0.12,0.07-0.18,0.12c0.02-0.01,0.03-0.03,0.05-0.04c0,0,0,0-0.01,0c0.02-0.01,0.04-0.02,0.06-0.03c0,0,0,0-0.01,0
					c0.02,0,0.04-0.01,0.07-0.01c0,0-0.01,0-0.01,0c0.02,0,0.04,0.01,0.07,0.01c0,0,0,0-0.01,0c0.02,0.01,0.04,0.02,0.06,0.03
					c0,0,0,0,0,0c0.02,0.01,0.03,0.03,0.05,0.04c0,0,0,0,0,0c0.02,0.06,0.05,0.12,0.07,0.18c0,0,0,0,0-0.01
					c-0.01,0.04-0.02,0.08-0.03,0.13c0,0,0,0,0-0.01c-0.01,0.02-0.03,0.03-0.04,0.05c0.02-0.03,0.05-0.06,0.07-0.08
					c-0.01,0.02-0.03,0.03-0.04,0.05c0.01-0.01,0.01-0.01,0.02-0.02c-0.02,0.01-0.03,0.03-0.05,0.04c0.02-0.02,0.05-0.03,0.07-0.04
					c0.01-0.01,0.03-0.01,0.04-0.02c0.03-0.01,0.05-0.04,0.08-0.06c0.05-0.04,0.08-0.09,0.13-0.13c-0.02,0.01-0.03,0.03-0.05,0.04
					c0.06-0.04,0.1-0.07,0.14-0.13c0.02-0.03,0.04-0.08,0.05-0.11c-0.01,0.02-0.02,0.04-0.03,0.06c0,0,0-0.01,0.01-0.01
					c-0.01,0.02-0.03,0.03-0.04,0.05c0,0,0,0,0,0c-0.02,0.01-0.03,0.03-0.05,0.04c0,0,0,0,0.01,0c-0.1-0.13-0.2-0.26-0.3-0.39
					c0,0,0,0,0,0c0.04-0.02,0.07-0.04,0.11-0.06c-0.04,0.01-0.07,0.03-0.11,0.05c0.02-0.01,0.04-0.02,0.06-0.03
					c-0.04,0.02-0.09,0.03-0.13,0.05c0.02-0.01,0.04-0.02,0.06-0.03c-0.04,0.02-0.07,0.02-0.11,0.04c-0.02,0.01-0.03,0.02-0.05,0.03
					c-0.06,0.03-0.1,0.06-0.15,0.1c0.02-0.01,0.03-0.03,0.05-0.04c-0.01,0.01-0.02,0.01-0.03,0.02c0.02-0.01,0.04-0.02,0.06-0.03
					c-0.05,0.02-0.1,0.03-0.14,0.06c-0.05,0.02-0.09,0.06-0.12,0.1c0.02-0.01,0.03-0.03,0.05-0.04c-0.03,0.02-0.06,0.04-0.08,0.06
					c0.02-0.01,0.03-0.03,0.05-0.04c0,0-0.01,0.01-0.01,0.01c0.02-0.01,0.04-0.02,0.06-0.03c0,0-0.01,0-0.01,0
					c0.02,0,0.04-0.01,0.07-0.01c0,0-0.01,0-0.01,0c0.02,0,0.04,0.01,0.07,0.01c-0.01,0-0.02,0-0.03-0.01
					c-0.13-0.04-0.28,0.04-0.31,0.17C28.07,46.53,28.14,46.66,28.27,46.7L28.27,46.7z"/>
			</g>
		</g>
		<g>
			<g>
				<path class="st2" d="M81.13,58.99c0.12,0.06,0.25,0.07,0.39,0.05c0.06-0.01-0.03,0,0.01,0c0.02,0,0.03,0,0.05,0
					c0.08,0,0.14-0.03,0.2-0.08c0.14-0.13,0.07-0.37-0.11-0.42c-0.19-0.05-0.36,0.02-0.54,0.06c-0.08,0.02-0.16,0.1-0.17,0.17
					c-0.03,0.18,0.09,0.3,0.15,0.46c0.06,0.15,0.08,0.31,0.13,0.47c0.08,0.28,0.47,0.21,0.49-0.07c0.01-0.12,0.04-0.23,0.07-0.35
					c-0.12,0.05-0.24,0.1-0.37,0.15c0,0,0.01,0.01,0.01,0.01c-0.04-0.05-0.08-0.1-0.11-0.15c0,0.01,0,0.01,0,0.02
					c0-0.04,0-0.09,0-0.13c-0.03,0.13-0.04,0.26-0.07,0.39c-0.02,0.06-0.03,0.12-0.05,0.18c-0.01,0.04-0.02,0.07-0.03,0.11
					c0,0.01-0.01,0.03-0.01,0.04c-0.01,0.04,0,0.03,0.02-0.03c0.13,0.02,0.26,0.03,0.39,0.05c-0.01-0.03-0.03-0.13-0.04-0.18
					c-0.01-0.05-0.03-0.1-0.04-0.15c0,0.04,0,0.09,0,0.13c0,0,0-0.01,0-0.01c-0.14,0.04-0.28,0.07-0.42,0.11
					c-0.03-0.04-0.01,0.01-0.01,0.03c0,0.03,0.01,0.05,0.01,0.08c0.01,0.06,0.01,0.13,0.01,0.19c0.01,0.13,0.04,0.27,0.04,0.4
					c0,0.05-0.02,0.09-0.02,0.15c0,0.07,0.02,0.14,0.05,0.2c0.03,0.06,0.05,0.11,0.08,0.17c0.01,0.03,0.01,0.04,0.01,0.01
					c0,0.03-0.01,0.07-0.01,0.1c-0.01,0.13,0.12,0.25,0.25,0.25c0.14,0,0.24-0.11,0.25-0.25c0.01-0.08,0.02-0.14,0-0.22
					c-0.02-0.07-0.06-0.14-0.09-0.21c-0.01-0.02-0.03-0.05-0.04-0.07c0.02,0.06,0.01,0.04,0.02-0.02c0.02-0.08,0-0.16-0.01-0.24
					c-0.02-0.15-0.03-0.31-0.04-0.46c-0.02-0.18-0.04-0.32-0.15-0.46c-0.13-0.16-0.36-0.05-0.42,0.11c-0.03,0.1,0.01,0.19,0.03,0.28
					c0.03,0.11,0.05,0.22,0.09,0.32c0.07,0.16,0.28,0.14,0.39,0.05c0.08-0.07,0.1-0.18,0.13-0.27c0.03-0.1,0.06-0.2,0.08-0.3
					c0.05-0.2,0.15-0.51-0.07-0.64c-0.14-0.08-0.32,0-0.37,0.15c-0.05,0.16-0.08,0.32-0.09,0.48c0.16-0.02,0.33-0.04,0.49-0.07
					c-0.04-0.14-0.07-0.29-0.11-0.43c-0.05-0.15-0.12-0.28-0.19-0.41c0.01,0.06,0.02,0.13,0.03,0.19c0,0,0-0.01,0-0.01
					c-0.06,0.06-0.12,0.12-0.17,0.17c0.08-0.02,0.19-0.08,0.27-0.06c-0.04-0.14-0.07-0.28-0.11-0.42c0,0,0,0-0.01,0.01
					c0.04-0.02,0.07-0.04,0.11-0.06c0.08-0.02-0.09,0-0.09,0c-0.01,0-0.03,0.01-0.04,0.01c0.01,0-0.07-0.02-0.02,0
					C81.1,58.41,80.85,58.84,81.13,58.99L81.13,58.99z"/>
			</g>
		</g>
		<g>
			<g>
				<path class="st2" d="M81.15,61.45c0.01,0.01,0.01,0.03,0.02,0.04c0.01,0.01,0.01,0.01,0-0.01
					C81.16,61.47,81.16,61.46,81.15,61.45c0-0.03,0.01,0.01,0.01,0.02c0,0.01,0,0.02,0,0.03c0,0.07,0,0.14,0.02,0.21
					c0.02,0.05,0-0.04,0,0c0,0.01,0,0.03,0,0.04c0,0.03,0,0.06,0,0.08c0,0.04,0.01,0.09,0.02,0.13c0.01,0.04-0.01-0.02,0-0.02
					c0,0,0,0.04,0,0.04c0,0.15-0.02,0.33,0.11,0.44c0.05,0.04,0.12,0.06,0.18,0.07c0.02,0.01,0.04,0.02,0.06,0.02
					c0.01,0,0.02,0,0.03,0.01c0.02,0,0.05,0.01,0.07,0.01c0.04,0,0.01,0-0.09-0.02c0.02-0.15,0.04-0.3,0.06-0.46
					c0.11-0.02,0.12,0,0.06-0.01c-0.02-0.01-0.04-0.01-0.07-0.01c-0.04,0-0.07,0-0.11-0.01c0.04,0.01,0.08,0.02,0.13,0.03
					c-0.05-0.02-0.09-0.04-0.14-0.04c-0.1,0-0.19,0.06-0.23,0.15c-0.04,0.09-0.02,0.21,0.05,0.27c0.08,0.07,0.15,0.08,0.25,0.09
					c0.01,0,0.03,0,0.04,0c0.04,0-0.02,0-0.03,0c0.03,0.02,0.08,0.02,0.12,0.02c0-0.17,0-0.33,0-0.5c-0.02,0-0.05,0-0.07,0
					c-0.03,0,0.06,0.01,0.02,0c-0.02,0-0.04-0.01-0.07-0.01c0.04,0.01,0.05,0.01,0.03,0c-0.07-0.02-0.15-0.03-0.22-0.01
					c-0.08,0.03-0.13,0.07-0.16,0.14c-0.03,0.08-0.02,0.15,0.01,0.22c0.04,0.08,0.13,0.13,0.22,0.15c0.04,0.01,0.08,0.01,0.12,0.01
					c0.03,0,0.06-0.01,0.09-0.01c0.04-0.01-0.07,0-0.07,0c0.02-0.16,0.04-0.33,0.07-0.49c-0.01,0-0.02,0-0.03,0
					c-0.11,0.01-0.22,0.07-0.24,0.18c-0.02,0.11,0.02,0.22,0.11,0.28c0.05,0.03,0.11,0.04,0.17,0.05c0-0.17,0-0.33,0-0.5
					c-0.03,0-0.05,0-0.08,0c-0.01,0-0.01,0,0.01,0c0.02,0,0.03,0,0.02,0c-0.01-0.01-0.07-0.01-0.08-0.01c-0.03,0,0,0,0.01,0
					c-0.01,0-0.02,0-0.03,0c-0.06-0.01-0.11-0.01-0.18,0c-0.1,0.02-0.19,0.14-0.18,0.24c0,0.04,0.01,0.09,0.03,0.13
					c0.03,0.06,0.09,0.09,0.15,0.11c0.05,0.02,0.1,0.02,0.15,0.02c0.02,0,0.07,0-0.01-0.01c0.04,0,0.07,0.01,0.1,0.01
					c-0.04-0.01-0.08-0.02-0.13-0.03c0,0,0.01,0,0.01,0.01c0.02-0.15,0.04-0.3,0.06-0.46c0.05,0,0.06,0,0.03,0
					c-0.01,0-0.02,0-0.03,0c-0.01,0-0.02,0-0.03,0c0.04,0.01,0.05,0.01,0.03,0c-0.01,0-0.01,0-0.02,0
					c-0.08-0.01-0.09-0.01-0.03-0.01c0-0.01-0.11-0.02-0.11-0.02c-0.13,0-0.26,0.12-0.25,0.25c0.01,0.14,0.11,0.25,0.25,0.25
					c-0.01,0-0.05-0.01-0.02,0c0.03,0.01,0.06,0.01,0.08,0.01c-0.01,0-0.05-0.01-0.02,0c0.03,0.01,0.06,0.01,0.09,0.01
					c0.06,0,0.12,0,0.18-0.01c0.21-0.06,0.25-0.35,0.06-0.46c-0.04-0.03-0.1-0.05-0.15-0.04c-0.03,0-0.02,0,0.03,0.01
					c-0.02,0-0.05-0.01-0.07-0.01c-0.02,0-0.03,0-0.05,0c-0.01,0-0.02,0-0.03,0c0.04,0.01,0.05,0.01,0.03,0c0,0.16,0,0.32,0,0.48
					c-0.02,0.01-0.05,0.01-0.07,0c0.01,0,0.02,0,0.03,0c0.03,0,0.06,0.01,0.08,0.01c0.03,0,0.02,0-0.03,0c0.03,0,0.07,0.01,0.1,0.01
					c0.02,0,0.05,0,0.07,0c0.13,0,0.26-0.12,0.25-0.25c-0.01-0.15-0.11-0.24-0.25-0.25c0.03,0,0.06,0.01,0.08,0.02
					c-0.04,0.16-0.08,0.31-0.13,0.47c0.01,0,0.02,0,0.03,0c0.13-0.01,0.23-0.09,0.25-0.22c0.02-0.13-0.06-0.23-0.18-0.27
					c-0.03-0.01-0.07-0.01-0.1-0.01c-0.03,0-0.05,0.01-0.08,0.01c0.04,0,0.05-0.01,0.03-0.01c-0.07-0.01,0.04,0.02,0,0
					c-0.01,0-0.02,0-0.02-0.01c-0.02-0.01-0.01,0,0.03,0.01c0.03,0.03,0.06,0.06,0.09,0.09c0,0,0-0.01,0-0.01
					c-0.05,0.12-0.1,0.24-0.15,0.37c-0.01,0-0.09,0-0.09,0c0,0,0.02,0,0.02,0c0.02,0,0.15,0.02,0.09,0.02
					c-0.06-0.01,0.04,0.01,0.03,0c0.02,0,0.04,0,0.05,0c0.02,0,0.05,0,0.07,0c0.13,0,0.26-0.12,0.25-0.25
					c-0.01-0.15-0.11-0.23-0.25-0.25c0.07,0.01,0.03,0,0.01,0c-0.03-0.01-0.06-0.01-0.09-0.01c0,0-0.01,0-0.01,0
					c-0.03,0-0.03,0,0.01,0c-0.06-0.02,0.03,0.02,0.06,0.05c-0.06,0.14-0.12,0.28-0.18,0.43c0,0,0,0,0.01,0
					c-0.04-0.01-0.08-0.02-0.13-0.03c0.05,0.02,0.09,0.04,0.15,0.04c0.01,0,0.02,0,0.03,0c0.03,0,0.02,0-0.02,0
					c0,0,0.05,0.01,0.06,0.01c0.06,0.01,0.1,0.01,0.16,0c0.1-0.01,0.17-0.12,0.18-0.21c0.01-0.1-0.03-0.19-0.12-0.25
					c-0.02-0.01-0.05-0.02-0.07-0.03c-0.02-0.01-0.07-0.02-0.08-0.01c-0.01,0,0.05,0.01,0.03,0c-0.01,0-0.02-0.01-0.04-0.01
					c-0.02-0.01-0.04-0.01-0.06-0.02C81.59,62,81.58,62,81.57,62c-0.02-0.01-0.03-0.02,0.03,0.01c0.03,0.03,0.06,0.06,0.09,0.09
					c0.02,0.04,0.02,0.05,0.01,0.02c0,0.04,0,0.04,0,0.02c0-0.02,0-0.04,0-0.06c0-0.04,0-0.07,0-0.11c0-0.05,0-0.11-0.02-0.16
					c-0.02-0.05,0,0.05,0-0.01c0-0.02,0-0.04,0-0.07c0-0.06-0.01-0.11-0.02-0.17c-0.01-0.05,0,0.05,0-0.01c0-0.02,0-0.04,0-0.06
					c0-0.06,0-0.11-0.01-0.16c-0.01-0.05-0.04-0.1-0.06-0.15c-0.06-0.12-0.23-0.16-0.34-0.09C81.12,61.18,81.09,61.32,81.15,61.45
					L81.15,61.45z"/>
			</g>
		</g>
		<g>
			<g>
				<path class="st2" d="M81.04,65.52c0.06,0.02,0.12,0.02,0.18,0.02c0.06,0,0.13,0,0.19-0.02c0.11-0.02,0.21-0.07,0.31-0.11
					c-0.02,0.01-0.04,0.02-0.06,0.03c0.02-0.01,0.05-0.02,0.07-0.02c0.04-0.01,0.08-0.03,0.12-0.05c-0.02,0.01-0.04,0.02-0.06,0.03
					c0.07-0.03,0.14-0.06,0.18-0.13c0.06-0.11,0.03-0.28-0.09-0.34c-0.09-0.05-0.18-0.05-0.28-0.02c-0.06,0.02-0.12,0.04-0.18,0.07
					c0.02-0.01,0.04-0.02,0.06-0.03c-0.04,0.02-0.08,0.02-0.13,0.03c0.06,0.15,0.13,0.3,0.19,0.46c0.05-0.03,0.09-0.06,0.13-0.1
					c-0.02,0.01-0.03,0.03-0.05,0.04c0.03-0.03,0.07-0.04,0.1-0.06c-0.02,0.01-0.04,0.02-0.06,0.03c0.01,0,0.03-0.01,0.04-0.01
					c0.12-0.03,0.19-0.16,0.18-0.27c-0.02-0.12-0.12-0.22-0.25-0.22c-0.08,0-0.14,0.03-0.21,0.06c0.02-0.01,0.04-0.02,0.06-0.03
					c-0.07,0.03-0.15,0.04-0.22,0.08c-0.05,0.03-0.1,0.09-0.11,0.15c-0.02,0.06-0.01,0.14,0.03,0.19c0.08,0.12,0.22,0.15,0.34,0.09
					c0,0,0.01,0,0.01-0.01c-0.02,0.01-0.04,0.02-0.06,0.03c0.03-0.01,0.06-0.02,0.09-0.03c0.05-0.02,0.09-0.03,0.13-0.05
					c-0.02,0.01-0.04,0.02-0.06,0.03c0.02-0.01,0.03-0.01,0.05-0.01c-0.02,0-0.04,0.01-0.07,0.01c0.01,0,0.01,0,0.02,0
					c-0.02-0.16-0.04-0.33-0.07-0.49c-0.1,0.02-0.18,0.08-0.26,0.14c0.02-0.01,0.03-0.03,0.05-0.04c-0.02,0.02-0.05,0.03-0.07,0.05
					c-0.1,0.07-0.15,0.19-0.1,0.31c0.02,0.05,0.05,0.09,0.1,0.12c0.06,0.03,0.12,0.04,0.19,0.03c0.03-0.01,0.06-0.01,0.09-0.02
					c0.04-0.01,0.08-0.03,0.12-0.05c-0.02,0.01-0.04,0.02-0.06,0.03c0.03-0.01,0.05-0.01,0.08-0.02c0.02-0.01,0.04-0.01,0.07-0.02
					c-0.02,0-0.04,0.01-0.07,0.01c0.01,0,0.02,0,0.03,0c-0.02,0-0.04-0.01-0.07-0.01c0,0,0.01,0,0.01,0
					c-0.02-0.01-0.04-0.02-0.06-0.03c0,0,0,0,0.01,0c-0.03-0.11-0.06-0.23-0.09-0.34c0,0,0,0,0,0c0.03-0.03,0.06-0.06,0.09-0.09
					c0,0-0.01,0-0.01,0.01c0.02-0.01,0.04-0.02,0.06-0.03c-0.04,0.02-0.08,0.04-0.12,0.05c0.02-0.01,0.04-0.02,0.06-0.03
					c-0.02,0.01-0.05,0.01-0.07,0.02c-0.04,0.01-0.07,0.03-0.11,0.05c0.02-0.01,0.04-0.02,0.06-0.03c-0.07,0.03-0.15,0.06-0.23,0.07
					c0.02,0,0.04-0.01,0.07-0.01c-0.07,0.01-0.14,0-0.21,0c0.02,0,0.04,0.01,0.07,0.01c-0.01,0-0.01,0-0.02,0
					c-0.13-0.03-0.28,0.04-0.31,0.17C80.84,65.35,80.91,65.48,81.04,65.52L81.04,65.52z"/>
			</g>
		</g>
		<g>
			<g>
				<path class="st2" d="M81.26,65.76c0.06,0,0.12-0.01,0.17-0.04c0.02-0.01,0.04-0.02,0.05-0.04c0.04-0.02,0.07-0.04,0.11-0.06
					c-0.02,0.01-0.04,0.02-0.06,0.03c0.01,0,0.02-0.01,0.03-0.01c-0.02,0-0.04,0.01-0.07,0.01c0.01,0,0.03,0,0.04,0
					c-0.02-0.16-0.04-0.33-0.07-0.49c0,0-0.01,0-0.01,0c-0.02,0.01-0.05,0.02-0.07,0.03c-0.01,0-0.01,0.01-0.02,0.01
					c-0.03,0.02-0.05,0.04-0.08,0.06c0.02-0.01,0.03-0.03,0.05-0.04c-0.03,0.03-0.07,0.05-0.1,0.08c-0.02,0.02-0.04,0.04-0.05,0.07
					c0,0.01-0.01,0.02-0.01,0.03c0.01-0.02,0.03-0.03,0.04-0.05c0,0-0.01,0.01-0.01,0.01c0.02-0.01,0.03-0.03,0.05-0.04
					c0,0-0.01,0.01-0.01,0.01c0.02-0.01,0.04-0.02,0.06-0.03c-0.01,0-0.01,0-0.02,0c0.02,0,0.04-0.01,0.07-0.01c0,0-0.01,0-0.01,0
					c0.07,0.04,0.14,0.08,0.22,0.12c0,0,0,0,0,0c0.01,0.04,0.02,0.08,0.03,0.13c0,0,0,0,0,0c0,0.02-0.01,0.04-0.01,0.07c0,0,0,0,0,0
					c-0.01,0.02-0.02,0.04-0.03,0.06c0,0,0-0.01,0.01-0.01c-0.01,0.02-0.03,0.03-0.04,0.05c0.01-0.01,0.02-0.02,0.02-0.03
					c0.02-0.02,0.04-0.05,0.05-0.08c0.02-0.03,0.02-0.06,0.02-0.1c0-0.03-0.01-0.07-0.02-0.1c-0.01-0.03-0.03-0.06-0.05-0.08
					c-0.05-0.04-0.11-0.08-0.18-0.07c-0.02,0-0.04,0.01-0.07,0.01c-0.04,0.01-0.08,0.03-0.11,0.06c-0.01,0.01-0.02,0.02-0.02,0.03
					c-0.02,0.02-0.03,0.04-0.05,0.06c-0.02,0.04-0.03,0.08-0.03,0.13c0,0.06,0.01,0.08,0.03,0.13c0.02,0.04,0.05,0.07,0.09,0.09
					c0.04,0.02,0.08,0.03,0.13,0.03c0.08,0,0.16-0.03,0.22-0.09c0.02-0.02,0.04-0.04,0.05-0.07c0.01-0.01,0.01-0.02,0.02-0.03
					c-0.01,0.02-0.03,0.03-0.04,0.05c0.01-0.01,0.01-0.01,0.02-0.02c-0.02,0.01-0.03,0.03-0.05,0.04c0.02-0.01,0.04-0.03,0.06-0.04
					c0.02-0.01,0.03-0.03,0.05-0.04c-0.02,0.01-0.03,0.03-0.05,0.04c0.01,0,0.01-0.01,0.02-0.01c-0.02,0.01-0.04,0.02-0.06,0.03
					c0.01,0,0.01,0,0.02,0c0.03-0.01,0.06-0.02,0.09-0.04c0.03-0.02,0.05-0.04,0.06-0.07c0.01-0.02,0.02-0.04,0.03-0.06
					c0.01-0.03,0.01-0.07,0-0.1c0-0.02-0.01-0.04-0.02-0.06c-0.01-0.03-0.03-0.06-0.05-0.08c-0.05-0.04-0.11-0.08-0.18-0.07
					c-0.04,0-0.09,0-0.13,0.02c-0.04,0.01-0.08,0.03-0.11,0.05c-0.02,0.01-0.04,0.02-0.06,0.04c-0.02,0.01-0.04,0.03-0.06,0.04
					c0.02-0.01,0.04-0.02,0.06-0.03c-0.01,0-0.01,0-0.02,0c0.02,0,0.04-0.01,0.07-0.01c-0.01,0-0.01,0-0.02,0
					c-0.03,0-0.07,0.01-0.1,0.02c-0.03,0.01-0.06,0.03-0.08,0.05c-0.02,0.02-0.04,0.05-0.05,0.08c-0.02,0.03-0.02,0.06-0.02,0.1
					c0,0.02,0.01,0.04,0.01,0.07c0.01,0.04,0.03,0.08,0.06,0.11c0.02,0.01,0.03,0.03,0.05,0.04C81.18,65.75,81.22,65.76,81.26,65.76
					L81.26,65.76z"/>
			</g>
		</g>
		<g>
			<g>
				<path class="st2" d="M81.01,67.79C81.04,67.8,81.04,67.8,81.01,67.79c0.01,0.01,0.04,0.02,0.07,0.03
					c0.02,0.01,0.04,0.02,0.06,0.02c-0.05-0.02,0.02,0.02-0.02-0.01c0.02,0.02,0.04,0.04,0.06,0.06c-0.03-0.03,0.01,0.01,0.01,0.02
					c0.02,0.03,0.04,0.06,0.07,0.08c0.02,0.02,0.04,0.05,0.06,0.07c0.03,0.04-0.02-0.03,0.02,0.02c0.03,0.04,0.06,0.08,0.08,0.12
					c0,0.01,0.04,0.08,0.02,0.04c0.01,0.02,0.02,0.04,0.03,0.07c0.02,0.05,0.04,0.1,0.06,0.16c0.01,0.02,0.01,0.05,0.02,0.07
					c0,0.01,0.01,0.02,0.01,0.03c0.01,0.03,0.01,0.02,0-0.02c0.01-0.04,0.02-0.08,0.03-0.13c0.02-0.05,0.02-0.02,0-0.01
					c-0.01,0.01-0.03,0.02-0.04,0.03c-0.04,0.03-0.07,0.07-0.1,0.11c-0.02,0.03-0.04,0.08-0.05,0.12c-0.01,0.04,0.02-0.03,0,0
					c0,0-0.03,0.04-0.03,0.04c-0.01-0.01,0.06-0.05,0.07-0.05c0.07-0.02,0.12,0.01,0.16,0.05c-0.02-0.02,0-0.02,0,0.01
					c0-0.02-0.01-0.03-0.01-0.05c-0.01-0.02-0.01-0.04-0.02-0.06c0,0-0.02-0.07-0.01-0.03c0.01,0.03,0-0.03,0-0.04
					c0-0.01,0-0.02,0-0.03c-0.01,0.03-0.01,0.03,0,0c-0.02,0.04-0.04,0.07-0.06,0.11c0,0,0,0,0.01-0.01
					c-0.04,0.02-0.07,0.04-0.11,0.06c-0.08,0.03-0.13-0.01-0.06,0.01c0.01,0,0.02,0.01,0.03,0.01c0.02,0.01,0.04,0.01,0.07,0.02
					c0.01,0,0.07,0.03,0.01,0c0.01,0.01,0.04,0.02,0.05,0.03c-0.06-0.03-0.05-0.08,0.02-0.16c0.08-0.12,0.08-0.16,0.02-0.14
					c0.06-0.02,0.02,0,0,0c-0.01,0-0.08-0.01-0.05,0c0.03,0-0.04-0.01-0.05-0.01c-0.02-0.01-0.01,0,0.01,0
					c0.02,0.01,0.03,0.02,0.04,0.04c-0.03-0.04,0.01,0.05,0,0c0-0.02-0.01-0.04-0.01-0.05c0.01,0.06,0-0.01,0-0.02
					c0,0.03,0,0.03,0,0c0,0.01-0.01,0.02-0.01,0.03c-0.01,0.02-0.03,0.04-0.05,0.05c0.02-0.01,0.03-0.03,0.05-0.04
					c0.02-0.02,0.05-0.05,0.06-0.07c0.05-0.11,0.04-0.21-0.04-0.3c0,0,0,0-0.01-0.01c-0.08-0.1-0.27-0.09-0.35,0
					c-0.1,0.11-0.09,0.25,0,0.35c0,0,0,0,0.01,0.01c-0.01-0.1-0.03-0.2-0.04-0.3c0.01-0.01,0.02-0.02,0.03-0.03
					c0.05-0.04,0.05-0.04-0.01,0.01c-0.02,0.02-0.05,0.05-0.06,0.08c-0.03,0.04-0.04,0.08-0.05,0.13c-0.02,0.1-0.02,0.22,0.01,0.32
					c0.03,0.11,0.09,0.2,0.19,0.26c0.1,0.06,0.22,0.08,0.33,0.08c0.11,0,0.22-0.02,0.3-0.1c0.11-0.1,0.14-0.27,0.06-0.4
					c-0.09-0.15-0.29-0.22-0.45-0.25c-0.16-0.04-0.31,0.04-0.35,0.2c-0.03,0.11-0.01,0.24,0.02,0.35c0.03,0.1,0.06,0.2,0.13,0.28
					c0.09,0.1,0.23,0.14,0.36,0.11c0.12-0.03,0.2-0.13,0.26-0.23c-0.01,0.01,0.06-0.12,0.05-0.12c0.02,0.01-0.07,0.08-0.01,0.04
					c0.02-0.01,0.03-0.03,0.05-0.04c0.1-0.09,0.16-0.2,0.12-0.34c-0.02-0.08-0.05-0.15-0.08-0.23c-0.04-0.11-0.08-0.22-0.14-0.31
					c-0.05-0.09-0.12-0.17-0.19-0.25c0,0-0.04-0.05-0.02-0.03c0.01,0.01,0.01,0.01-0.01-0.01c-0.02-0.02-0.03-0.05-0.05-0.07
					c-0.03-0.03-0.06-0.06-0.09-0.09c-0.06-0.05-0.12-0.08-0.19-0.1c-0.01,0-0.08-0.03-0.02-0.01c-0.04-0.02-0.07-0.04-0.11-0.04
					c-0.13-0.02-0.28,0.04-0.31,0.17C80.81,67.61,80.88,67.77,81.01,67.79L81.01,67.79z"/>
			</g>
		</g>
		<g>
			<g>
				<path class="st2" d="M81.4,69.33c0.32,0,0.32-0.5,0-0.5C81.08,68.83,81.08,69.33,81.4,69.33L81.4,69.33z"/>
			</g>
		</g>
		<g>
			<g>
				<path class="st2" d="M81.48,69.33c0.32,0,0.32-0.5,0-0.5C81.16,68.83,81.16,69.33,81.48,69.33L81.48,69.33z"/>
			</g>
		</g>
		<g>
			<g>
				<path class="st2" d="M81.53,69.34c0.32,0,0.32-0.5,0-0.5C81.21,68.84,81.21,69.34,81.53,69.34L81.53,69.34z"/>
			</g>
		</g>
		<g>
			<g>
				<path class="st2" d="M81.61,69.34c0.32,0,0.32-0.5,0-0.5C81.29,68.84,81.29,69.34,81.61,69.34L81.61,69.34z"/>
			</g>
		</g>
		<g>
			<g>
				<path class="st2" d="M81.65,69.35c0.32,0,0.32-0.5,0-0.5C81.33,68.85,81.32,69.35,81.65,69.35L81.65,69.35z"/>
			</g>
		</g>
		<g>
			<g>
				<path class="st2" d="M81.67,69.35c0.32,0,0.32-0.5,0-0.5C81.34,68.85,81.34,69.35,81.67,69.35L81.67,69.35z"/>
			</g>
		</g>
		<g>
			<g>
				<path class="st2" d="M81.54,69.35c0.32,0,0.32-0.5,0-0.5C81.22,68.85,81.22,69.35,81.54,69.35L81.54,69.35z"/>
			</g>
		</g>
		<g>
			<g>
				<path class="st2" d="M81.48,69.34c0.32,0,0.32-0.5,0-0.5C81.16,68.84,81.15,69.34,81.48,69.34L81.48,69.34z"/>
			</g>
		</g>
		<g>
			<g>
				<path class="st2" d="M81.45,69.35c0.32,0,0.32-0.5,0-0.5C81.13,68.85,81.13,69.35,81.45,69.35L81.45,69.35z"/>
			</g>
		</g>
		<g>
			<g>
				<path class="st2" d="M81.44,69.35c0.32,0,0.32-0.5,0-0.5C81.12,68.85,81.12,69.35,81.44,69.35L81.44,69.35z"/>
			</g>
		</g>
		<g>
			<g>
				<path class="st2" d="M81.43,69.35c0.32,0,0.32-0.5,0-0.5C81.11,68.85,81.11,69.35,81.43,69.35L81.43,69.35z"/>
			</g>
		</g>
		<g>
			<g>
				<path class="st2" d="M81.43,69.35c0.32,0,0.32-0.5,0-0.5C81.11,68.85,81.11,69.35,81.43,69.35L81.43,69.35z"/>
			</g>
		</g>
		<g>
			<g>
				<path class="st2" d="M81.48,67.93c0.32,0,0.32-0.5,0-0.5C81.16,67.43,81.15,67.93,81.48,67.93L81.48,67.93z"/>
			</g>
		</g>
		<g>
			<g>
				<path class="st2" d="M81.5,67.93c0.32,0,0.32-0.5,0-0.5C81.18,67.43,81.18,67.93,81.5,67.93L81.5,67.93z"/>
			</g>
		</g>
		<g>
			<g>
				<path class="st2" d="M81.51,67.93c0.32,0,0.32-0.5,0-0.5C81.19,67.43,81.19,67.93,81.51,67.93L81.51,67.93z"/>
			</g>
		</g>
		<g>
			<g>
				<path class="st2" d="M81.5,67.91c0.32,0,0.32-0.5,0-0.5C81.18,67.41,81.18,67.91,81.5,67.91L81.5,67.91z"/>
			</g>
		</g>
		<g>
			<g>
				<path class="st2" d="M81.51,67.91c0.32,0,0.32-0.5,0-0.5C81.18,67.41,81.18,67.91,81.51,67.91L81.51,67.91z"/>
			</g>
		</g>
		<g>
			<g>
				<path class="st2" d="M81.52,67.9c0.32,0,0.32-0.5,0-0.5C81.19,67.4,81.19,67.9,81.52,67.9L81.52,67.9z"/>
			</g>
		</g>
		<g>
			<g>
				<path class="st2" d="M81.37,67.84c0.32,0,0.32-0.5,0-0.5C81.05,67.34,81.05,67.84,81.37,67.84L81.37,67.84z"/>
			</g>
		</g>
		<g>
			<g>
				<path class="st2" d="M81.31,67.8c0.32,0,0.32-0.5,0-0.5C80.99,67.3,80.99,67.8,81.31,67.8L81.31,67.8z"/>
			</g>
		</g>
		<g>
			<g>
				<path class="st2" d="M81.35,67.81c0.32,0,0.32-0.5,0-0.5C81.03,67.31,81.02,67.81,81.35,67.81L81.35,67.81z"/>
			</g>
		</g>
		<g>
			<g>
				<path class="st2" d="M81.27,67.77c0.32,0,0.32-0.5,0-0.5C80.95,67.27,80.95,67.77,81.27,67.77L81.27,67.77z"/>
			</g>
		</g>
		<g>
			<g>
				<path class="st2" d="M81.55,69.35c0.32,0,0.32-0.5,0-0.5C81.23,68.85,81.22,69.35,81.55,69.35L81.55,69.35z"/>
			</g>
		</g>
		<g>
			<g>
				<path class="st2" d="M81.56,69.35c0.32,0,0.32-0.5,0-0.5C81.24,68.85,81.24,69.35,81.56,69.35L81.56,69.35z"/>
			</g>
		</g>
		<g>
			<g>
				<path class="st2" d="M81.56,69.35C81.56,69.35,81.56,69.35,81.56,69.35c0.04,0,0.07-0.01,0.1-0.02
					c0.03-0.01,0.06-0.03,0.08-0.05c0.02-0.02,0.04-0.05,0.05-0.08c0.02-0.03,0.02-0.06,0.02-0.1c0-0.02-0.01-0.04-0.01-0.07
					c-0.01-0.04-0.03-0.08-0.06-0.11c-0.02-0.01-0.03-0.03-0.05-0.04c-0.04-0.02-0.08-0.03-0.13-0.03c0,0,0,0,0,0
					c-0.03,0-0.07,0.01-0.1,0.02c-0.03,0.01-0.06,0.03-0.08,0.05c-0.02,0.02-0.04,0.05-0.05,0.08c-0.02,0.03-0.02,0.06-0.02,0.1
					c0,0.02,0.01,0.04,0.01,0.07c0.01,0.04,0.03,0.08,0.06,0.11c0.02,0.01,0.03,0.03,0.05,0.04C81.47,69.34,81.51,69.35,81.56,69.35
					L81.56,69.35z"/>
			</g>
		</g>
		<g>
			<g>
				<path class="st2" d="M81.56,69.35c0.32,0,0.32-0.5,0-0.5C81.24,68.85,81.24,69.35,81.56,69.35L81.56,69.35z"/>
			</g>
		</g>
		<g>
			<g>
				<path class="st2" d="M81.56,69.36c0.32,0,0.32-0.5,0-0.5C81.24,68.86,81.24,69.36,81.56,69.36L81.56,69.36z"/>
			</g>
		</g>
		<g>
			<g>
				<path class="st2" d="M81.53,69.36c0.32,0,0.32-0.5,0-0.5C81.21,68.86,81.21,69.36,81.53,69.36L81.53,69.36z"/>
			</g>
		</g>
		<g>
			<g>
				<path class="st2" d="M81.52,68.86C81.52,68.86,81.52,68.86,81.52,68.86c-0.04,0-0.07,0.01-0.1,0.02
					c-0.03,0.01-0.06,0.03-0.08,0.05c-0.02,0.02-0.04,0.05-0.05,0.08c-0.02,0.03-0.02,0.06-0.02,0.1c0,0.02,0.01,0.04,0.01,0.07
					c0.01,0.04,0.03,0.08,0.06,0.11c0.02,0.01,0.03,0.03,0.05,0.04c0.04,0.02,0.08,0.03,0.13,0.03c0,0,0,0,0,0
					c0.03,0,0.07-0.01,0.1-0.02c0.03-0.01,0.06-0.03,0.08-0.05c0.02-0.02,0.04-0.05,0.05-0.08c0.02-0.03,0.02-0.06,0.02-0.1
					c0-0.02-0.01-0.04-0.01-0.07c-0.01-0.04-0.03-0.08-0.06-0.11c-0.02-0.01-0.03-0.03-0.05-0.04
					C81.61,68.87,81.57,68.86,81.52,68.86L81.52,68.86z"/>
			</g>
		</g>
		<g>
			<g>
				<path class="st2" d="M81.43,69.36c0.32,0,0.32-0.5,0-0.5C81.1,68.86,81.1,69.36,81.43,69.36L81.43,69.36z"/>
			</g>
		</g>
		<g>
			<g>
				<path class="st2" d="M81.43,69.36c0.32,0,0.32-0.5,0-0.5C81.11,68.86,81.11,69.36,81.43,69.36L81.43,69.36z"/>
			</g>
		</g>
		<g>
			<g>
				<path class="st2" d="M81.42,69.36c0.32,0,0.32-0.5,0-0.5C81.1,68.86,81.1,69.36,81.42,69.36L81.42,69.36z"/>
			</g>
		</g>
		<g>
			<g>
				<path class="st2" d="M81.42,69.37c0.32,0,0.32-0.5,0-0.5C81.1,68.87,81.1,69.37,81.42,69.37L81.42,69.37z"/>
			</g>
		</g>
		<g>
			<g>
				<path class="st2" d="M81.57,69.36c0.32,0,0.32-0.5,0-0.5C81.25,68.86,81.25,69.36,81.57,69.36L81.57,69.36z"/>
			</g>
		</g>
		<g>
			<g>
				<path class="st2" d="M81.6,69.37c0.32,0,0.32-0.5,0-0.5C81.28,68.87,81.28,69.37,81.6,69.37L81.6,69.37z"/>
			</g>
		</g>
		<g>
			<g>
				<path class="st2" d="M81.62,69.36c0.32,0,0.32-0.5,0-0.5C81.3,68.86,81.3,69.36,81.62,69.36L81.62,69.36z"/>
			</g>
		</g>
		<g>
			<g>
				<path class="st2" d="M81.64,69.37c0.32,0,0.32-0.5,0-0.5C81.31,68.87,81.31,69.37,81.64,69.37L81.64,69.37z"/>
			</g>
		</g>
		<g>
			<g>
				<path class="st2" d="M28.16,56.75c0.04-0.01,0.08-0.03,0.12-0.06c0.01-0.01,0.03-0.03,0.04-0.03c-0.03,0.01-0.03,0.01-0.01,0.01
					c0.01,0,0.02-0.01,0.03-0.01c0.08-0.03,0.17-0.06,0.24-0.11c0.07-0.04,0.13-0.08,0.2-0.12c0.06-0.04,0.13-0.08,0.19-0.12
					c0.06-0.05,0.11-0.1,0.12-0.18c0.01-0.08-0.01-0.16-0.07-0.21c-0.07-0.07-0.16-0.08-0.25-0.08c-0.04,0-0.09,0-0.13,0.01
					c-0.02,0-0.03,0-0.05,0c-0.01,0-0.02,0-0.04,0c0.02,0,0.05,0.01,0.07,0.02c0.04,0.05,0.08,0.1,0.11,0.15c0,0,0-0.01,0-0.01
					c0,0.04,0,0.09,0,0.13c0-0.02,0-0.02-0.01,0.02c-0.02,0.03-0.02,0.03-0.01,0.01c0.01-0.01,0.03-0.03,0.04-0.04
					c0.03-0.03,0.07-0.06,0.1-0.09c0.08-0.07,0.18-0.15,0.21-0.26c0.05-0.19-0.12-0.35-0.31-0.31c-0.02,0-0.03,0.01-0.05,0.01
					c-0.01,0-0.05,0.01-0.02,0.01c0.03-0.01-0.02,0-0.03,0c-0.02,0-0.04,0-0.06,0c-0.03,0-0.07,0-0.1,0c0.03,0,0.02,0,0,0
					c-0.02,0-0.05-0.03,0.02,0.01c0.03,0.03,0.06,0.06,0.09,0.09c0,0,0,0,0-0.01c0.01,0.06,0.02,0.13,0.03,0.19
					c-0.01,0.02-0.04,0.06-0.01,0.04c0.01-0.01,0.02-0.03,0.04-0.04c0.03-0.03,0.05-0.06,0.08-0.08c0.05-0.05,0.11-0.1,0.16-0.15
					c0.1-0.11,0.1-0.33-0.05-0.39c-0.12-0.05-0.22-0.03-0.33,0.02c-0.09,0.05-0.15,0.18-0.11,0.28c0,0,0,0,0,0
					c0.05,0.13,0.17,0.21,0.31,0.17c0,0,0,0,0,0c-0.04-0.16-0.09-0.32-0.13-0.48c-0.1,0.03-0.2,0.05-0.31,0.06
					c-0.03,0-0.05,0.01-0.08,0.01c-0.05,0.01,0.03,0-0.03,0c-0.02,0-0.04,0-0.06,0.01c-0.08,0.01-0.09,0.01-0.04,0
					c-0.01,0-0.02,0-0.03,0c0.07,0.13,0.14,0.25,0.22,0.38c0,0,0.01-0.01,0.01-0.01c-0.03,0.03-0.06,0.06-0.09,0.09
					c0.02-0.01,0.01-0.01-0.01,0c0.01,0,0.03-0.01,0.04-0.01c0.02-0.01,0.04-0.01,0.07-0.02c0.06-0.01,0.11-0.03,0.17-0.04
					c0.01,0,0.02-0.01,0.03-0.01c-0.03,0-0.03,0,0,0c0.04,0,0.08-0.01,0.12-0.02c0.03-0.01,0.07-0.02,0.1-0.04
					c0.02-0.02,0.04-0.03,0.06-0.05c0.02-0.02,0.01-0.01-0.02,0.02c0.12-0.05,0.16-0.24,0.09-0.34c-0.08-0.12-0.21-0.15-0.34-0.09
					c-0.02,0.01-0.11,0.08-0.04,0.03c-0.02,0.01-0.02,0.01,0.01-0.01c0.03,0,0.04-0.01,0.01,0c-0.07,0-0.15,0.03-0.22,0.04
					c-0.06,0.02-0.12,0.03-0.18,0.04c-0.1,0.03-0.17,0.07-0.23,0.15c-0.05,0.07-0.04,0.18,0,0.25c0.05,0.08,0.13,0.12,0.22,0.12
					c0.04,0,0.08-0.01,0.12-0.01c-0.07,0.01,0,0,0.01,0c0.07-0.01,0.15-0.02,0.22-0.03c0.11-0.02,0.22-0.04,0.33-0.07
					c0.13-0.04,0.22-0.18,0.17-0.31c-0.04-0.13-0.17-0.21-0.31-0.17c0,0,0,0,0,0c0.1,0.06,0.21,0.12,0.31,0.17c0,0,0,0,0,0
					c-0.04,0.09-0.08,0.19-0.11,0.28c0.01,0-0.08,0.03-0.03,0.01c0.03-0.01,0.06,0-0.02,0c-0.04-0.01-0.08-0.02-0.13-0.03
					c0,0,0,0,0,0c-0.02-0.13-0.03-0.26-0.05-0.39c-0.07,0.07-0.14,0.13-0.21,0.2c-0.11,0.11-0.25,0.25-0.18,0.43
					c0.06,0.15,0.22,0.18,0.37,0.18c0.12,0.01,0.24-0.01,0.35-0.04c-0.1-0.1-0.21-0.21-0.31-0.31c0.05-0.08,0.06-0.1,0.03-0.06
					c-0.01,0.01-0.02,0.02-0.03,0.03c-0.02,0.02-0.03,0.03-0.05,0.05c-0.04,0.04-0.08,0.07-0.12,0.11c-0.11,0.1-0.21,0.22-0.17,0.38
					c0.04,0.17,0.21,0.22,0.37,0.21c0.05,0,0.1-0.01,0.15-0.01c0.01,0,0.02,0,0.02,0c0.06,0-0.04-0.01-0.02,0
					c-0.04-0.02-0.07-0.04-0.11-0.06c0,0,0,0,0,0c0.02-0.13,0.03-0.26,0.05-0.39c-0.12,0.09-0.26,0.16-0.38,0.23
					c-0.03,0.02-0.06,0.03-0.09,0.05c-0.01,0-0.06,0.03-0.03,0.01c0.03-0.01-0.02,0.01-0.03,0.01c-0.05,0.02-0.1,0.04-0.14,0.06
					c-0.02,0.01-0.03,0.02-0.04,0.03c-0.01,0-0.01,0.01-0.02,0.01c-0.02,0.01-0.02,0.01,0.02-0.01c-0.13,0.03-0.21,0.18-0.17,0.31
					C27.9,56.71,28.02,56.78,28.16,56.75L28.16,56.75z"/>
			</g>
		</g>
		<g>
			<g>
				<path class="st2" d="M28.38,56.6c0.32,0,0.32-0.5,0-0.5C28.05,56.1,28.05,56.6,28.38,56.6L28.38,56.6z"/>
			</g>
		</g>
		<g>
			<g>
				<path class="st2" d="M28.26,56.58C28.26,56.58,28.27,56.59,28.26,56.58c0.03,0.03,0.05,0.05,0.08,0.06
					c0.03,0.02,0.06,0.02,0.1,0.02c0.03,0,0.07-0.01,0.1-0.02c0.03-0.01,0.06-0.03,0.08-0.05c0.01-0.02,0.03-0.03,0.04-0.05
					c0.02-0.04,0.03-0.08,0.03-0.13c0-0.02-0.01-0.04-0.01-0.07c-0.01-0.04-0.03-0.08-0.06-0.11c0,0,0,0,0,0
					c-0.02-0.02-0.05-0.04-0.08-0.05c-0.03-0.02-0.06-0.02-0.1-0.02c-0.03,0-0.07,0.01-0.1,0.02c-0.03,0.01-0.06,0.03-0.08,0.05
					c-0.01,0.02-0.03,0.03-0.04,0.05c-0.02,0.04-0.03,0.08-0.03,0.13c0,0.02,0.01,0.04,0.01,0.07
					C28.21,56.52,28.23,56.55,28.26,56.58L28.26,56.58z"/>
			</g>
		</g>
		<g>
			<g>
				<path class="st2" d="M28.45,56.66c0.32,0,0.32-0.5,0-0.5C28.13,56.16,28.13,56.66,28.45,56.66L28.45,56.66z"/>
			</g>
		</g>
		<g>
			<g>
				<path class="st2" d="M28.47,56.71c0.32,0,0.32-0.5,0-0.5C28.15,56.21,28.15,56.71,28.47,56.71L28.47,56.71z"/>
			</g>
		</g>
		<g>
			<g>
				<path class="st2" d="M28.49,56.74c0.32,0,0.32-0.5,0-0.5C28.17,56.24,28.17,56.74,28.49,56.74L28.49,56.74z"/>
			</g>
		</g>
		<g>
			<g>
				<path class="st2" d="M28.41,56.75c0.32,0,0.32-0.5,0-0.5C28.09,56.25,28.09,56.75,28.41,56.75L28.41,56.75z"/>
			</g>
		</g>
		<g>
			<g>
				<path class="st2" d="M28.32,56.79c0.32,0,0.32-0.5,0-0.5C28,56.29,28,56.79,28.32,56.79L28.32,56.79z"/>
			</g>
		</g>
		<g>
			<g>
				<path class="st2" d="M28.28,56.81c0.32,0,0.32-0.5,0-0.5C27.96,56.31,27.96,56.81,28.28,56.81L28.28,56.81z"/>
			</g>
		</g>
		<g>
			<g>
				<path class="st2" d="M28.4,56.76c0.32,0,0.32-0.5,0-0.5C28.08,56.26,28.08,56.76,28.4,56.76L28.4,56.76z"/>
			</g>
		</g>
		<g>
			<g>
				<path class="st2" d="M28.43,56.76C28.43,56.76,28.43,56.76,28.43,56.76c0.04,0,0.07-0.01,0.1-0.02
					c0.03-0.01,0.06-0.03,0.08-0.05c0.02-0.02,0.04-0.05,0.05-0.08c0.02-0.03,0.02-0.06,0.02-0.1c0-0.02-0.01-0.04-0.01-0.07
					c-0.01-0.04-0.03-0.08-0.06-0.11c-0.02-0.01-0.03-0.03-0.05-0.04c-0.04-0.02-0.08-0.03-0.13-0.03c0,0,0,0,0,0
					c-0.03,0-0.07,0.01-0.1,0.02c-0.03,0.01-0.06,0.03-0.08,0.05c-0.02,0.02-0.04,0.05-0.05,0.08c-0.02,0.03-0.02,0.06-0.02,0.1
					c0,0.02,0.01,0.04,0.01,0.07c0.01,0.04,0.03,0.08,0.06,0.11c0.02,0.01,0.03,0.03,0.05,0.04C28.34,56.75,28.38,56.76,28.43,56.76
					L28.43,56.76z"/>
			</g>
		</g>
		<g>
			<g>
				<path class="st2" d="M28.49,56.76c0.32,0,0.32-0.5,0-0.5C28.16,56.26,28.16,56.76,28.49,56.76L28.49,56.76z"/>
			</g>
		</g>
		<g>
			<g>
				<path class="st2" d="M28.52,56.75c0.32,0,0.32-0.5,0-0.5C28.19,56.25,28.19,56.75,28.52,56.75L28.52,56.75z"/>
			</g>
		</g>
		<g>
			<g>
				<path class="st2" d="M28.81,55.38c0.32,0,0.32-0.5,0-0.5C28.49,54.88,28.49,55.38,28.81,55.38L28.81,55.38z"/>
			</g>
		</g>
		<g>
			<g>
				<path class="st2" d="M28.75,55.4c0.32,0,0.32-0.5,0-0.5C28.43,54.9,28.43,55.4,28.75,55.4L28.75,55.4z"/>
			</g>
		</g>
		<g>
			<g>
				<path class="st2" d="M28.69,54.9C28.69,54.9,28.69,54.9,28.69,54.9c-0.04,0-0.07,0.01-0.1,0.02c-0.03,0.01-0.06,0.03-0.08,0.05
					c-0.02,0.02-0.04,0.05-0.05,0.08c-0.02,0.03-0.02,0.06-0.02,0.1c0,0.02,0.01,0.04,0.01,0.07c0.01,0.04,0.03,0.08,0.06,0.11
					c0.02,0.01,0.03,0.03,0.05,0.04c0.04,0.02,0.08,0.03,0.13,0.03c0,0,0,0,0,0c0.03,0,0.07-0.01,0.1-0.02
					c0.03-0.01,0.06-0.03,0.08-0.05c0.02-0.02,0.04-0.05,0.05-0.08c0.02-0.03,0.02-0.06,0.02-0.1c0-0.02-0.01-0.04-0.01-0.07
					c-0.01-0.04-0.03-0.08-0.06-0.11c-0.02-0.01-0.03-0.03-0.05-0.04C28.78,54.91,28.73,54.9,28.69,54.9L28.69,54.9z"/>
			</g>
		</g>
		<g>
			<g>
				<path class="st2" d="M28.63,55.43c0.32,0,0.32-0.5,0-0.5C28.31,54.93,28.31,55.43,28.63,55.43L28.63,55.43z"/>
			</g>
		</g>
		<g>
			<g>
				<path class="st2" d="M28.61,55.43c0.32,0,0.32-0.5,0-0.5C28.29,54.93,28.29,55.43,28.61,55.43L28.61,55.43z"/>
			</g>
		</g>
		<g>
			<g>
				<path class="st2" d="M28.77,55.34c0.32,0,0.32-0.5,0-0.5C28.45,54.84,28.45,55.34,28.77,55.34L28.77,55.34z"/>
			</g>
		</g>
		<g>
			<g>
				<path class="st2" d="M28.66,55.38c0.32,0,0.32-0.5,0-0.5C28.33,54.88,28.33,55.38,28.66,55.38L28.66,55.38z"/>
			</g>
		</g>
		<g>
			<g>
				<path class="st2" d="M28.58,55.43c0.32,0,0.32-0.5,0-0.5C28.25,54.93,28.25,55.43,28.58,55.43L28.58,55.43z"/>
			</g>
		</g>
		<g>
			<g>
				<path class="st2" d="M28.51,52.77c0.32,0,0.32-0.5,0-0.5C28.19,52.27,28.19,52.77,28.51,52.77L28.51,52.77z"/>
			</g>
		</g>
		<g>
			<g>
				<path class="st2" d="M28.67,52.67c0.32,0,0.32-0.5,0-0.5C28.35,52.17,28.34,52.67,28.67,52.67L28.67,52.67z"/>
			</g>
		</g>
		<g>
			<g>
				<path class="st2" d="M28.74,52.53c0.32,0,0.32-0.5,0-0.5C28.41,52.03,28.41,52.53,28.74,52.53L28.74,52.53z"/>
			</g>
		</g>
		<g>
			<g>
				<path class="st2" d="M28.63,52.57c0.32,0,0.32-0.5,0-0.5C28.31,52.07,28.31,52.57,28.63,52.57L28.63,52.57z"/>
			</g>
		</g>
		<g>
			<g>
				<path class="st2" d="M28.6,52.57c0.32,0,0.32-0.5,0-0.5C28.27,52.07,28.27,52.57,28.6,52.57L28.6,52.57z"/>
			</g>
		</g>
		<g>
			<g>
				<path class="st2" d="M28.62,52.56c0.32,0,0.32-0.5,0-0.5C28.3,52.06,28.3,52.56,28.62,52.56L28.62,52.56z"/>
			</g>
		</g>
		<g>
			<g>
				<path class="st2" d="M28.6,52.87c0.32,0,0.32-0.5,0-0.5C28.27,52.37,28.27,52.87,28.6,52.87L28.6,52.87z"/>
			</g>
		</g>
		<g>
			<g>
				<path class="st2" d="M28.67,52.88c0.32,0,0.32-0.5,0-0.5C28.35,52.38,28.34,52.88,28.67,52.88L28.67,52.88z"/>
			</g>
		</g>
		<g>
			<g>
				<path class="st2" d="M28.71,52.91c0.32,0,0.32-0.5,0-0.5C28.39,52.41,28.39,52.91,28.71,52.91L28.71,52.91z"/>
			</g>
		</g>
		<g>
			<g>
				<path class="st2" d="M28.55,52.91c0.32,0,0.32-0.5,0-0.5C28.23,52.41,28.23,52.91,28.55,52.91L28.55,52.91z"/>
			</g>
		</g>
		<g>
			<g>
				<path class="st2" d="M28.49,52.91c0.32,0,0.32-0.5,0-0.5C28.17,52.41,28.17,52.91,28.49,52.91L28.49,52.91z"/>
			</g>
		</g>
		<g>
			<g>
				<path class="st2" d="M28.66,52.92c0.32,0,0.32-0.5,0-0.5C28.33,52.42,28.33,52.92,28.66,52.92L28.66,52.92z"/>
			</g>
		</g>
		<g>
			<g>
				<path class="st2" d="M28.73,52.92c0.32,0,0.32-0.5,0-0.5C28.41,52.42,28.41,52.92,28.73,52.92L28.73,52.92z"/>
			</g>
		</g>
		<g>
			<g>
				<path class="st2" d="M28.74,52.93c0.32,0,0.32-0.5,0-0.5C28.41,52.43,28.41,52.93,28.74,52.93L28.74,52.93z"/>
			</g>
		</g>
		<g>
			<g>
				<path class="st2" d="M28.79,49.04C28.79,49.04,28.79,49.04,28.79,49.04c0-0.04-0.01-0.07-0.02-0.1
					c-0.01-0.03-0.03-0.06-0.05-0.08c-0.02-0.02-0.05-0.04-0.08-0.05c-0.03-0.02-0.06-0.02-0.1-0.02c-0.02,0-0.04,0.01-0.07,0.01
					c-0.04,0.01-0.08,0.03-0.11,0.06c-0.01,0.02-0.03,0.03-0.04,0.05c-0.02,0.04-0.03,0.08-0.03,0.13c0,0,0,0,0,0
					c0,0.03,0.01,0.07,0.02,0.1c0.01,0.03,0.03,0.06,0.05,0.08c0.02,0.02,0.05,0.04,0.08,0.05c0.03,0.02,0.06,0.02,0.1,0.02
					c0.02,0,0.04-0.01,0.07-0.01c0.04-0.01,0.08-0.03,0.11-0.06c0.01-0.02,0.03-0.03,0.04-0.05C28.78,49.13,28.79,49.09,28.79,49.04
					L28.79,49.04z"/>
			</g>
		</g>
		<g>
			<g>
				<path class="st2" d="M28.66,49.18c0.03,0,0.06-0.01,0.08-0.01c-0.02,0-0.04,0.01-0.07,0.01c0,0,0,0,0,0
					c0.03,0,0.07-0.01,0.1-0.02c0.03-0.01,0.06-0.03,0.08-0.05c0.02-0.02,0.04-0.05,0.05-0.08c0.02-0.03,0.02-0.06,0.02-0.1
					c0-0.02-0.01-0.04-0.01-0.07c-0.01-0.04-0.03-0.08-0.06-0.11c-0.02-0.01-0.03-0.03-0.05-0.04c-0.04-0.02-0.08-0.03-0.13-0.03
					c-0.02,0-0.05,0-0.07,0.01c0,0-0.01,0-0.01,0c0.02,0,0.04-0.01,0.07-0.01c0,0,0,0,0,0c-0.03,0-0.07,0.01-0.1,0.02
					c-0.03,0.01-0.06,0.03-0.08,0.05c-0.02,0.02-0.04,0.05-0.05,0.08c-0.02,0.03-0.02,0.06-0.02,0.1c0,0.02,0.01,0.04,0.01,0.07
					c0.01,0.04,0.03,0.08,0.06,0.11c0.02,0.01,0.03,0.03,0.05,0.04C28.57,49.17,28.61,49.18,28.66,49.18L28.66,49.18z"/>
			</g>
		</g>
		<g>
			<g>
				<path class="st2" d="M28.78,49.16c0.32,0,0.32-0.5,0-0.5C28.45,48.66,28.45,49.16,28.78,49.16L28.78,49.16z"/>
			</g>
		</g>
		<g>
			<g>
				<path class="st2" d="M28.78,49.13c0.32,0,0.32-0.5,0-0.5C28.46,48.63,28.46,49.13,28.78,49.13L28.78,49.13z"/>
			</g>
		</g>
		<g>
			<g>
				<path class="st2" d="M28.78,49.09c0.32,0,0.32-0.5,0-0.5C28.46,48.59,28.46,49.09,28.78,49.09L28.78,49.09z"/>
			</g>
		</g>
		<g>
			<g>
				<path class="st2" d="M28.79,49.07c0.32,0,0.32-0.5,0-0.5C28.47,48.57,28.47,49.07,28.79,49.07L28.79,49.07z"/>
			</g>
		</g>
		<g>
			<g>
				<path class="st2" d="M28.64,49.04c0.32,0,0.32-0.5,0-0.5C28.32,48.54,28.32,49.04,28.64,49.04L28.64,49.04z"/>
			</g>
		</g>
		<g>
			<g>
				<path class="st2" d="M28.43,49.07C28.43,49.07,28.43,49.07,28.43,49.07c0,0.04,0.01,0.07,0.02,0.1
					c0.01,0.03,0.03,0.06,0.05,0.08c0.02,0.02,0.05,0.04,0.08,0.05c0.03,0.02,0.06,0.02,0.1,0.02c0.02,0,0.04-0.01,0.07-0.01
					c0.04-0.01,0.08-0.03,0.11-0.06c0.01-0.02,0.03-0.03,0.04-0.05c0.02-0.04,0.03-0.08,0.03-0.13c0,0,0-0.01,0-0.01
					c0-0.03-0.01-0.07-0.02-0.1c-0.01-0.03-0.03-0.06-0.05-0.08c-0.02-0.02-0.05-0.04-0.08-0.05c-0.03-0.02-0.06-0.02-0.1-0.02
					c-0.02,0-0.04,0.01-0.07,0.01c-0.04,0.01-0.08,0.03-0.11,0.06c-0.01,0.02-0.03,0.03-0.04,0.05
					C28.44,48.98,28.43,49.02,28.43,49.07L28.43,49.07z"/>
			</g>
		</g>
		<g>
			<g>
				<path class="st2" d="M28.49,49.01C28.49,49.02,28.49,49.02,28.49,49.01c-0.03,0.03-0.05,0.06-0.06,0.09
					c-0.02,0.03-0.02,0.06-0.02,0.1c0,0.03,0.01,0.07,0.02,0.1c0.01,0.03,0.03,0.06,0.05,0.08c0.02,0.01,0.03,0.03,0.05,0.04
					c0.04,0.02,0.08,0.03,0.13,0.03c0.02,0,0.04-0.01,0.07-0.01c0.04-0.01,0.08-0.03,0.11-0.06c0,0,0.01-0.01,0.01-0.01
					c0.02-0.02,0.04-0.05,0.05-0.08c0.02-0.03,0.02-0.06,0.02-0.1c0-0.03-0.01-0.07-0.02-0.1c-0.01-0.03-0.03-0.06-0.05-0.08
					c-0.02-0.01-0.03-0.03-0.05-0.04c-0.04-0.02-0.08-0.03-0.13-0.03c-0.02,0-0.04,0.01-0.07,0.01
					C28.56,48.96,28.52,48.98,28.49,49.01L28.49,49.01z"/>
			</g>
		</g>
		<g>
			<g>
				<path class="st2" d="M28.61,49.54c0.32,0,0.32-0.5,0-0.5C28.29,49.04,28.29,49.54,28.61,49.54L28.61,49.54z"/>
			</g>
		</g>
		<g>
			<g>
				<path class="st2" d="M28.59,49.6c0.32,0,0.32-0.5,0-0.5C28.27,49.1,28.27,49.6,28.59,49.6L28.59,49.6z"/>
			</g>
		</g>
		<g>
			<g>
				<path class="st2" d="M28.7,49.57c0.32,0,0.32-0.5,0-0.5C28.38,49.07,28.38,49.57,28.7,49.57L28.7,49.57z"/>
			</g>
		</g>
		<g>
			<g>
				<path class="st2" d="M28.5,49.63c0.32,0,0.32-0.5,0-0.5C28.18,49.13,28.18,49.63,28.5,49.63L28.5,49.63z"/>
			</g>
		</g>
		<g>
			<g>
				<path class="st2" d="M33.79,93.05c0.35,0.29,0.65,0.29,1.09,0.33c0.45,0.04,0.93,0.15,1.37,0.27c0-0.16,0-0.32,0-0.48
					c-0.48,0.14-0.99,0.11-1.48,0.17c-0.45,0.05-0.93,0.08-1.38,0.18c-0.26,0.06-0.22,0.41,0,0.48c0.46,0.16,0.92,0.09,1.39,0.03
					c0.52-0.06,1.04-0.09,1.55-0.19c0.16-0.03,0.23-0.24,0.15-0.37c-0.15-0.25-0.53-0.14-0.76-0.08c-0.25,0.06-0.51,0.12-0.75,0.21
					c-0.25,0.09-0.23,0.49,0.07,0.49c0,0,0,0,0,0c-0.02-0.16-0.04-0.33-0.07-0.49c-0.38,0.09-0.77,0.18-1.16,0.24
					c-0.23,0.04-0.48,0.05-0.68,0.17c-0.2,0.12-0.13,0.38,0.06,0.46c0.83,0.35,1.88,0.16,2.75,0.11c0.46-0.02,0.91-0.03,1.36-0.08
					c0.24-0.03,0.52-0.03,0.65-0.26c0.09-0.15,0-0.31-0.15-0.37c-0.83-0.31-1.88-0.28-2.74-0.14c-0.27,0.04-0.21,0.52,0.07,0.49
					c0.54-0.06,1.08-0.11,1.63-0.11c0.41,0,0.93,0.13,1.31-0.05c0.09-0.04,0.15-0.19,0.11-0.28c-0.14-0.38-0.69-0.39-1.03-0.43
					c-0.55-0.06-1.1,0.02-1.63,0.17c-0.29,0.08-0.2,0.47,0.07,0.49c0.5,0.04,1.03,0.03,1.53,0.03c0.32,0,0.88,0.12,1.14-0.11
					c0.12-0.11,0.08-0.32-0.05-0.39c-1.01-0.58-2.25-0.53-3.35-0.33c-0.58,0.1-1.15,0.21-1.73,0.3c-0.34,0.06-0.61,0.11-0.94-0.02
					c-0.27-0.1-0.51-0.17-0.8-0.19c-0.28-0.02-0.35,0.45-0.07,0.49c0.42,0.06,0.83,0.13,1.25,0.16c0.4,0.03,0.79-0.02,1.2-0.03
					c0-0.17,0-0.33,0-0.5c-0.34,0-0.68-0.03-1.01-0.07c-0.29-0.04-0.58-0.11-0.88-0.09c-0.2,0.02-0.3,0.2-0.22,0.38
					c0.11,0.22,0.32,0.31,0.49,0.47c0-0.12,0-0.24,0-0.35c-0.07,0.09-0.36,0.02-0.46,0.01c-0.22-0.02-0.44-0.02-0.66-0.01
					c0.02,0.16,0.04,0.33,0.07,0.49c0.19-0.03,0.36-0.13,0.53-0.22c0.16-0.08,0.34-0.12,0.46-0.25c0.1-0.1,0.09-0.25,0-0.35
					c-0.18-0.2-0.42-0.23-0.66-0.3c-0.21-0.06-0.6-0.11-0.77-0.26c0.02,0.08,0.04,0.16,0.06,0.24c0.05-0.19,0.23-0.34,0.33-0.51
					c0.11-0.2,0.17-0.42,0.17-0.65c0-0.32-0.49-0.32-0.5,0c-0.01,0.3,0.02,0.6,0.11,0.9c0.04,0.14,0.1,0.29,0.15,0.43
					c0.01,0.03,0.11,0.31,0.15,0.26c0.05-0.04,0.1-0.08,0.15-0.11c0.13-0.04,0.05,0.01,0.01-0.09c-0.03-0.07-0.09-0.15-0.13-0.22
					c-0.11-0.21-0.2-0.42-0.27-0.65c-0.12,0.09-0.24,0.19-0.37,0.28c0.01,0.01,0.02,0.17,0.03,0.2c0.02,0.07,0.05,0.14,0.08,0.21
					c0.06,0.17,0.12,0.33,0.19,0.5c0.03,0.07,0.06,0.13,0.09,0.2c0.02,0.04,0.04,0.08,0.05,0.13c0.05,0.13,0,0.12,0.08,0.03
					c0.13,0.02,0.26,0.03,0.39,0.05c-0.25-0.4-0.4-0.83-0.52-1.28c-0.13-0.46-0.28-0.92-0.38-1.4c-0.1-0.46-0.08-0.87,0.09-1.3
					c0.17-0.43,0.33-0.89,0.31-1.36c-0.01-0.33-0.46-0.31-0.5,0c-0.04,0.31,0.12,0.57,0.25,0.84c0.17,0.35,0.28,0.73,0.34,1.11
					c0.03,0.22,0,0.34-0.2,0.45c-0.08,0.04-0.24,0.07-0.32,0.12c-0.02,0.01-0.04,0.01-0.06,0.02c0.15,0.16,0.21,0.15,0.17-0.01
					c0.05-0.15,0-0.41,0.01-0.57c0-0.1,0.01-0.19,0.02-0.29c0-0.02,0.03-0.23-0.03-0.14c-0.05,0.04-0.1,0.08-0.15,0.11
					c0.02-0.01,0.03-0.01,0.05-0.02c-0.09-0.04-0.19-0.08-0.28-0.11c0.21,0.43,0.47,0.89,0.6,1.35c0.15-0.06,0.3-0.13,0.46-0.19
					c-0.13-0.21-0.23-0.42-0.38-0.62c-0.17-0.22-0.5-0.1-0.46,0.19c0.04,0.25,0.14,0.47,0.31,0.65c0.19,0.21,0.45-0.02,0.42-0.24
					c-0.04-0.32-0.19-0.6-0.32-0.89c-0.16-0.34-0.18-0.67-0.23-1.03c-0.14,0.08-0.28,0.16-0.42,0.24c0.34,0.32,0.57,0.74,0.88,1.09
					c0.35,0.39,0.74,0.75,1.14,1.09c0.75,0.63,1.57,1.24,2.48,1.62c1,0.41,2.11,0.4,3.17,0.4c0.56,0,1.13,0,1.69,0
					c0.53,0.01,1.06-0.06,1.59-0.04c0-0.17,0-0.33,0-0.5c-0.88,0.02-1.74-0.19-2.62-0.2c-0.37-0.01-0.73,0-1.1-0.01
					c-0.25-0.01-0.47-0.01-0.58,0.25c-0.04,0.1,0.03,0.23,0.11,0.28c0.53,0.3,1.12,0.37,1.71,0.45c0.33,0.04,0.66,0.09,0.99,0.11
					c0.29,0.02,0.58,0.14,0.87,0.2c0.66,0.14,1.3,0.22,1.97,0.22c0.3,0,0.61,0.01,0.91-0.03c0.21-0.03,0.46-0.04,0.62-0.21
					c0.12-0.13,0.08-0.3-0.05-0.39c-0.34-0.25-0.87-0.36-1.28-0.46c-0.47-0.12-0.95-0.21-1.44-0.27c-0.9-0.11-1.91-0.21-2.74,0.25
					c-0.17,0.09-0.16,0.34,0,0.43c0.22,0.13,0.46,0.15,0.7,0.2c0.35,0.08,0.7,0.15,1.05,0.23c0.62,0.14,1.22,0.36,1.84,0.47
					c0.31,0.06,0.44-0.38,0.13-0.48c-0.41-0.14-0.84-0.25-1.26-0.36c-0.17-0.04-0.34-0.09-0.51-0.13c-0.11-0.03-0.27-0.04-0.37-0.1
					c-0.04,0.16-0.08,0.31-0.13,0.47c0.93-0.12,1.87-0.07,2.8-0.07c0.32,0,0.32-0.5,0-0.5c-0.9-0.01-1.72-0.4-2.59-0.6
					c-0.87-0.2-1.75-0.33-2.64-0.38c-0.89-0.06-1.81-0.14-2.7-0.08c-0.31,0.02-0.67-0.02-0.87,0.26c-0.12,0.17-0.16,0.18-0.36,0.21
					c-0.15,0.02-0.29,0.04-0.41,0.13c-0.21,0.15-0.1,0.56,0.19,0.46c0.12-0.04,0.32-0.11,0.44-0.03c-0.04-0.05-0.08-0.1-0.11-0.15
					c0.01,0.02,0.01,0.03,0.02,0.05c0.01-0.06,0.02-0.13,0.03-0.19c0.03-0.05-0.04,0.01-0.08,0.01c-0.09,0.01-0.14,0.01-0.23,0.01
					c-0.15,0-0.27,0.01-0.4,0.1c-0.22,0.14-0.12,0.44,0.13,0.47c0.15,0.02,0.3-0.02,0.44,0.01c-0.02-0.15-0.04-0.3-0.06-0.46
					c-0.07,0.04-0.3,0.14-0.37,0.12c0.02,0.15,0.04,0.3,0.06,0.46c0.21-0.13,0.41-0.18,0.64-0.24c0.18-0.05,0.3-0.14,0.31-0.34
					c0.03-0.32-0.47-0.32-0.5,0c0,0.01,0,0.02,0,0.03c0.02-0.06,0.05-0.12,0.07-0.18c-0.03,0.03-0.24,0.04-0.29,0.06
					c-0.17,0.05-0.34,0.14-0.49,0.23c-0.17,0.1-0.16,0.42,0.06,0.46c0.25,0.04,0.54-0.06,0.76-0.17c0.18-0.09,0.15-0.42-0.06-0.46
					c-0.19-0.03-0.38,0-0.57-0.03c0.04,0.16,0.08,0.31,0.13,0.47c0.08-0.05,0.12-0.01,0.22-0.01c0.1,0.01,0.21-0.02,0.31-0.05
					c0.15-0.05,0.34-0.12,0.38-0.29c0.13-0.51-0.7-0.45-0.96-0.35c0.06,0.15,0.13,0.3,0.19,0.46c0.23-0.17,0.57-0.02,0.79-0.25
					c0.13-0.13,0.11-0.25,0.32-0.28c0.18-0.02,0.37-0.02,0.55-0.03c0.88-0.03,1.79,0.05,2.66,0.11c0.86,0.06,1.71,0.2,2.55,0.42
					c0.83,0.21,1.58,0.54,2.44,0.55c0-0.17,0-0.33,0-0.5c-0.93,0-1.87-0.05-2.8,0.07c-0.23,0.03-0.37,0.33-0.13,0.47
					c0.26,0.15,0.61,0.18,0.89,0.26c0.46,0.12,0.91,0.24,1.36,0.39c0.04-0.16,0.09-0.32,0.13-0.48c-0.58-0.11-1.15-0.32-1.72-0.45
					c-0.31-0.07-0.62-0.13-0.93-0.2c-0.25-0.06-0.59-0.07-0.81-0.21c0,0.14,0,0.29,0,0.43c0.74-0.41,1.68-0.29,2.48-0.18
					c0.44,0.06,0.88,0.14,1.31,0.25c0.36,0.09,0.85,0.18,1.16,0.41c-0.02-0.13-0.03-0.26-0.05-0.39c-0.04,0.04-0.22,0.05-0.28,0.06
					c-0.15,0.02-0.29,0.03-0.44,0.03c-0.27,0-0.55,0-0.82,0c-0.6-0.01-1.21-0.12-1.79-0.27c-0.22-0.05-0.42-0.13-0.64-0.15
					c-0.29-0.03-0.58-0.06-0.87-0.09c-0.55-0.07-1.12-0.12-1.62-0.4c0.04,0.09,0.08,0.19,0.11,0.28c0-0.01,0.01-0.02,0.01-0.03
					c-0.04,0.05-0.08,0.1-0.11,0.15c0.05-0.03,0.19,0,0.25,0c0.14,0.01,0.29,0,0.43,0c0.36,0,0.72,0,1.08,0.02
					c0.72,0.05,1.44,0.2,2.16,0.18c0.32-0.01,0.32-0.49,0-0.5c-0.51-0.02-1.02,0.05-1.53,0.04c-0.54-0.01-1.09,0-1.63,0
					c-1.02,0-2.1,0.03-3.06-0.35c-0.9-0.36-1.72-0.98-2.45-1.6c-0.37-0.32-0.73-0.65-1.05-1.02c-0.31-0.35-0.55-0.76-0.88-1.09
					c-0.19-0.19-0.45,0.01-0.42,0.24c0.05,0.34,0.07,0.66,0.21,0.98c0.13,0.31,0.3,0.6,0.35,0.94c0.14-0.08,0.28-0.16,0.42-0.24
					c-0.11-0.12-0.15-0.27-0.18-0.43c-0.15,0.06-0.3,0.13-0.46,0.19c0.15,0.19,0.25,0.41,0.38,0.62c0.15,0.24,0.54,0.09,0.46-0.19
					c-0.15-0.5-0.42-1-0.65-1.47c-0.05-0.1-0.18-0.15-0.28-0.11c-0.22,0.07-0.26,0.21-0.25,0.42c0.01,0.32-0.03,0.64-0.02,0.97
					c0.01,0.19,0.03,0.42,0.24,0.49c0.19,0.06,0.46-0.07,0.63-0.15c0.54-0.25,0.61-0.65,0.5-1.19c-0.06-0.31-0.15-0.61-0.28-0.9
					c-0.1-0.25-0.3-0.51-0.27-0.79c-0.17,0-0.33,0-0.5,0c0.02,0.55-0.26,1-0.4,1.51c-0.11,0.42-0.08,0.86,0.01,1.28
					c0.1,0.49,0.26,0.97,0.39,1.45c0.14,0.47,0.3,0.93,0.56,1.34c0.08,0.13,0.28,0.17,0.39,0.05c0.23-0.25,0.01-0.61-0.1-0.86
					c-0.1-0.24-0.22-0.49-0.27-0.75c-0.04-0.19-0.09-0.31-0.25-0.43c-0.18-0.13-0.43,0.08-0.37,0.28c0.11,0.33,0.46,1.49,1.01,1.3
					c0.29-0.1,0.21-0.4,0.12-0.61c-0.19-0.44-0.32-0.86-0.31-1.34c-0.17,0-0.33,0-0.5,0c0,0.43-0.37,0.64-0.48,1.03
					c-0.02,0.08,0,0.18,0.06,0.24c0.16,0.15,0.36,0.2,0.57,0.26c0.14,0.04,0.28,0.09,0.42,0.13c0.14,0.04,0.34,0.06,0.44,0.17
					c0-0.12,0-0.24,0-0.35c-0.08,0.08-0.26,0.12-0.36,0.17c-0.14,0.07-0.26,0.14-0.41,0.17c-0.28,0.04-0.21,0.5,0.07,0.49
					c0.3-0.01,0.58,0.02,0.87,0.03c0.21,0.01,0.46,0,0.6-0.17c0.08-0.1,0.11-0.26,0-0.35c-0.13-0.11-0.34-0.21-0.42-0.36
					c-0.07,0.13-0.14,0.25-0.22,0.38c0.29-0.02,0.59,0.05,0.88,0.09c0.34,0.04,0.67,0.07,1.01,0.07c0.32,0,0.32-0.5,0-0.5
					c-0.36,0-0.72,0.05-1.08,0.03c-0.41-0.02-0.82-0.09-1.23-0.15c-0.02,0.16-0.04,0.33-0.07,0.49c0.55,0.05,0.97,0.36,1.54,0.26
					c0.53-0.09,1.06-0.17,1.59-0.27c1.12-0.22,2.4-0.41,3.44,0.19c-0.02-0.13-0.03-0.26-0.05-0.39c0.06-0.05-0.07-0.02-0.11-0.03
					c-0.07,0-0.15-0.01-0.22-0.01c-0.24,0-0.48,0-0.73,0c-0.41,0-0.84,0.01-1.25-0.03c0.02,0.16,0.04,0.33,0.07,0.49
					c0.38-0.1,0.76-0.17,1.15-0.17c0.28,0,0.76,0.01,0.99,0.17c-0.04-0.05-0.08-0.1-0.11-0.15c0.01,0.02,0.01,0.04,0.02,0.06
					c0.04-0.09,0.08-0.19,0.11-0.28c-0.15,0.07-0.46-0.01-0.62-0.01c-0.23-0.01-0.45-0.01-0.68,0c-0.46,0.01-0.92,0.05-1.38,0.11
					c0.02,0.16,0.04,0.33,0.07,0.49c0.77-0.13,1.74-0.14,2.48,0.14c-0.05-0.12-0.1-0.24-0.15-0.37c0.03-0.06,0,0-0.05,0
					c-0.05,0-0.1,0.01-0.15,0.02c-0.17,0.02-0.34,0.04-0.51,0.05c-0.39,0.02-0.78,0.03-1.17,0.05c-0.74,0.05-1.62,0.18-2.32-0.11
					c0.02,0.15,0.04,0.3,0.06,0.46c0.18-0.11,0.44-0.1,0.64-0.14c0.37-0.06,0.73-0.14,1.09-0.23c0.28-0.07,0.21-0.49-0.07-0.49
					c0,0,0,0,0,0c0.02,0.16,0.04,0.33,0.07,0.49c0.16-0.06,0.33-0.1,0.49-0.15c0.12-0.03,0.24-0.06,0.37-0.09
					c0.04-0.01,0.09-0.01,0.13-0.02c0.16-0.05,0.08,0.11-0.04-0.1c0.05-0.12,0.1-0.24,0.15-0.37c-0.47,0.08-0.95,0.11-1.42,0.17
					c-0.42,0.05-0.84,0.13-1.25-0.02c0,0.16,0,0.32,0,0.48c0.93-0.21,1.94-0.09,2.86-0.35c0.24-0.07,0.24-0.41,0-0.48
					c-0.36-0.1-0.74-0.17-1.1-0.23c-0.37-0.06-0.84,0.01-1.13-0.23C33.9,92.49,33.54,92.84,33.79,93.05L33.79,93.05z"/>
			</g>
		</g>
		<g>
			<g>
				<path class="st2" d="M30.76,88.45c-0.17,0-0.34-0.01-0.51,0.01c-0.03,0-0.06,0-0.09,0c-0.05,0,0.04,0.01,0.01,0
					c-0.01,0,0.05,0.03,0.06,0.04c0.06,0.06,0.06,0.14,0.03,0.21c0,0,0-0.01,0.01-0.01c0.01-0.02,0.01-0.02,0,0
					c-0.01,0.02-0.01,0.02,0,0c0,0,0.01-0.01,0.01-0.01c0.01-0.01,0.03-0.02,0.04-0.03c-0.02,0.02-0.03,0.02,0,0
					c0.01-0.01,0.02-0.02,0.03-0.02c0.04-0.03,0.07-0.05,0.1-0.08c0.05-0.04,0.1-0.09,0.15-0.14c-0.04,0.04,0.01-0.01,0.02-0.01
					c0.01-0.01,0.03-0.02,0.04-0.03c0.01-0.01,0.03-0.02,0.04-0.02c0.01-0.01,0.07-0.02,0.01-0.01c0.03-0.01,0.07-0.02,0.1-0.03
					c0.06-0.02-0.05,0,0.02,0c0.02,0,0.05,0,0.07,0c-0.08-0.08-0.17-0.17-0.25-0.25c0.01-0.07,0.02-0.11,0.06-0.15
					c-0.02,0.02,0.06-0.03,0.03-0.02c-0.01,0-0.03,0.02-0.05,0.02c0.04-0.03,0.04-0.02,0.01-0.01c-0.01,0-0.03,0.01-0.04,0.01
					c-0.02,0.01-0.05,0.01-0.07,0.02c-0.11,0.03-0.22,0.05-0.34,0.07c-0.04,0.01-0.08,0.01-0.12,0.02c-0.01,0-0.03,0-0.03,0
					c0.01,0,0.02,0,0.03,0c-0.02,0-0.04,0-0.06,0.01c-0.02,0-0.05,0.01-0.07,0.01c-0.11,0.01-0.21,0.02-0.32,0.02
					c-0.04,0-0.08,0.01-0.12,0.01c-0.02,0-0.04,0-0.07,0c0.05,0.01-0.03-0.02,0.03,0.01c0.04,0.07,0.08,0.14,0.12,0.22
					c-0.01-0.06-0.01,0.05,0,0.01c-0.02,0.04-0.02,0.05-0.01,0.03c-0.03,0.03-0.03,0.04-0.01,0.02c0.01-0.01,0.01-0.01,0.02-0.02
					c0.02-0.02,0.02-0.01-0.01,0.01c0,0,0.05-0.03,0.06-0.04c0.04-0.02,0.07-0.04,0.11-0.06c0.01,0,0.02-0.01,0.03-0.01
					c0.03-0.01,0.02-0.01-0.01,0.01c0,0,0.05-0.02,0.06-0.02c0.06-0.02,0.12-0.04,0.18-0.06c0.03-0.01,0.07-0.02,0.11-0.03
					c0.04-0.01-0.06,0,0.01,0c0.03,0,0.02,0-0.03,0c0.03,0.01,0.02,0-0.03-0.01c-0.02-0.01-0.04-0.03-0.06-0.06
					c-0.01-0.04-0.02-0.05-0.01-0.02c0-0.04-0.01-0.04,0-0.01c0,0.03,0,0.03,0,0c0,0.02-0.01,0.04-0.02,0.06
					c-0.01,0.03-0.01,0.03,0,0c-0.01,0.01-0.01,0.03-0.02,0.04c-0.03,0.05-0.06,0.1-0.1,0.15c0.03-0.04-0.01,0.01-0.02,0.02
					c-0.02,0.02-0.04,0.05-0.06,0.07c-0.07,0.08-0.14,0.17-0.22,0.25c-0.1,0.1-0.21,0.2-0.29,0.32c-0.1,0.14,0.01,0.32,0.15,0.37
					c0.14,0.05,0.3,0,0.42-0.08c0.06-0.04,0.12-0.09,0.17-0.14c0.02-0.02,0.04-0.04,0.06-0.06c0.01-0.01,0.02-0.02,0.03-0.03
					c0.03-0.03-0.03,0.02,0,0c0.01,0,0.02-0.01,0.03-0.02c0.04-0.03-0.01,0.01-0.02,0c0,0,0.07-0.02,0.08-0.03
					c0.03-0.01,0.06-0.01,0.09-0.02c-0.06,0.01-0.01,0,0.01,0c0.02,0,0.03,0,0.05,0c0.03,0,0.06,0,0.09,0c0.03,0-0.04-0.01,0,0
					c0.01,0,0.03,0.01,0.04,0.01c0,0,0.06,0.02,0.03,0.01c-0.03-0.01,0.02,0.01,0.02,0.01c0.01,0.01,0.02,0.01,0.03,0.02
					c-0.05-0.03,0,0,0.01,0.01c-0.01-0.1-0.03-0.2-0.04-0.3c-0.01,0.03-0.03,0.06-0.05,0.09c-0.02,0.04,0.02-0.01,0,0.01
					c-0.01,0.01-0.02,0.03-0.03,0.04c-0.04,0.05-0.09,0.09-0.14,0.13c-0.12,0.09-0.22,0.19-0.31,0.31c-0.14,0.2,0.14,0.48,0.34,0.34
					c0.14-0.09,0.28-0.18,0.41-0.27c0.12-0.08,0.26-0.16,0.32-0.3c0.04-0.09,0.05-0.19-0.02-0.28c-0.06-0.08-0.16-0.11-0.26-0.09
					c-0.23,0.06-0.45,0.12-0.67,0.2c-0.1,0.03-0.19,0.08-0.29,0.11c-0.05,0.02,0.01,0,0.03,0c0.06,0.02,0.1,0.06,0.12,0.12
					c0,0,0-0.01,0-0.01c-0.01-0.04,0,0.06,0,0c0-0.02,0-0.04,0-0.06c0-0.13-0.11-0.26-0.25-0.25c-0.13,0.01-0.25,0.11-0.25,0.25
					c0,0.13,0.01,0.27,0.12,0.36c0.14,0.13,0.33,0.09,0.49,0.03c0.27-0.11,0.56-0.19,0.85-0.26c-0.09-0.12-0.19-0.24-0.28-0.37
					c0,0.01-0.01,0.02-0.02,0.03c0.02-0.02,0.02-0.03,0-0.01c-0.01,0.01-0.02,0.02-0.03,0.03c0.02-0.02,0.02-0.02,0,0
					c-0.05,0.03-0.09,0.06-0.14,0.1c-0.12,0.08-0.24,0.16-0.37,0.24c0.11,0.11,0.23,0.23,0.34,0.34c0.03-0.05-0.02,0.02,0,0
					c0.01-0.01,0.02-0.03,0.03-0.04c0.02-0.02,0.05-0.05,0.07-0.07c0.05-0.04,0.1-0.08,0.15-0.12c0.11-0.09,0.22-0.2,0.27-0.33
					c0.05-0.11,0.04-0.21-0.04-0.3c-0.23-0.24-0.62-0.26-0.92-0.16c-0.14,0.05-0.24,0.14-0.35,0.24c-0.02,0.02-0.05,0.04-0.07,0.06
					c-0.02,0.02-0.01,0.01,0.01,0c-0.01,0.01-0.03,0.02-0.04,0.03c0,0-0.03,0.02-0.03,0.02c-0.01-0.01,0.06-0.01,0.01-0.01
					c-0.03,0,0.06,0,0.02,0c0.03,0,0.05,0.01,0.01,0c0.05,0.12,0.1,0.24,0.15,0.37c0.02-0.04-0.01,0.01,0.02-0.03
					c0.02-0.02,0.03-0.04,0.05-0.05c0.04-0.04,0.08-0.08,0.12-0.11c0.07-0.07,0.13-0.14,0.19-0.21c0.14-0.17,0.29-0.33,0.37-0.54
					c0.08-0.22,0.04-0.52-0.21-0.6c-0.15-0.05-0.32,0.01-0.46,0.06c-0.13,0.05-0.27,0.1-0.39,0.17c-0.17,0.1-0.35,0.3-0.26,0.52
					c0.11,0.25,0.49,0.18,0.71,0.17c0.16-0.01,0.31-0.03,0.47-0.06c0.14-0.02,0.28-0.05,0.41-0.09c0.18-0.05,0.36-0.14,0.38-0.35
					c0.01-0.13-0.12-0.25-0.25-0.25c-0.25,0-0.47,0.09-0.66,0.25c-0.04,0.03-0.07,0.06-0.11,0.09c-0.01,0.01-0.03,0.04-0.04,0.04
					c0.03-0.03,0.04-0.03,0.02-0.01c0,0-0.01,0.01-0.01,0.01c-0.08,0.05-0.16,0.11-0.22,0.18c-0.09,0.11-0.14,0.25-0.08,0.38
					c0.06,0.14,0.19,0.2,0.33,0.21c0.07,0.01,0.15-0.01,0.22-0.01c0.13,0,0.26,0,0.4,0c0.13,0,0.26-0.11,0.25-0.25
					C31,88.57,30.9,88.45,30.76,88.45L30.76,88.45z"/>
			</g>
		</g>
		<g>
			<g>
				<path class="st2" d="M30.77,88.05c0.01-0.15-0.09-0.3-0.13-0.44c-0.05-0.17-0.08-0.34-0.11-0.51c-0.06-0.32-0.16-0.67-0.34-0.95
					c-0.13-0.19-0.47-0.14-0.47,0.13c0,0.19,0.07,0.38,0.12,0.56c0.03,0.11,0.05,0.22,0.08,0.33c0.02,0.09,0.06,0.2,0.07,0.29
					c0.16-0.02,0.33-0.04,0.49-0.07c-0.05-0.17-0.06-0.35-0.07-0.52c-0.01-0.21-0.04-0.41-0.06-0.61c-0.01-0.08-0.01-0.16-0.02-0.24
					c-0.01-0.07-0.03-0.13-0.02-0.2c0.02-0.18,0.09-0.37-0.07-0.51c-0.24-0.21-0.6,0.14-0.35,0.35c0-0.01-0.01-0.01-0.01-0.02
					c-0.01-0.04-0.02-0.08-0.03-0.13c0.01,0.04,0-0.02,0,0.03c0,0.04-0.01,0.09-0.02,0.13c-0.02,0.1-0.03,0.18-0.01,0.28
					c0.02,0.16,0.04,0.31,0.06,0.47c0.04,0.36,0.02,0.74,0.12,1.09c0.08,0.26,0.51,0.22,0.49-0.07c-0.01-0.22-0.09-0.44-0.14-0.66
					c-0.02-0.11-0.05-0.21-0.08-0.32c-0.01-0.06-0.04-0.17-0.04-0.2c-0.16,0.04-0.31,0.08-0.47,0.13c0.17,0.24,0.24,0.54,0.29,0.83
					c0.03,0.15,0.05,0.29,0.09,0.44c0.02,0.08,0.05,0.15,0.08,0.22c0.02,0.04,0.06,0.13,0.06,0.15c-0.01,0.13,0.12,0.25,0.25,0.25
					C30.66,88.3,30.76,88.18,30.77,88.05L30.77,88.05z"/>
			</g>
		</g>
		<g>
			<g>
				<path class="st2" d="M30.28,85.32c-0.01,0-0.01,0-0.02-0.01c0.04,0.02,0.07,0.04,0.11,0.06c-0.13-0.11-0.15-0.18-0.19-0.33
					c-0.02-0.07-0.05-0.14-0.06-0.2c-0.01-0.09,0-0.11,0.02-0.21c0.03-0.19,0.08-0.39,0.03-0.57c-0.02-0.06-0.01-0.16-0.02-0.24
					c-0.01-0.03-0.01-0.04,0-0.02c0-0.02,0-0.04,0-0.06c0-0.04,0-0.08,0-0.12c0-0.32-0.5-0.32-0.5,0c0,0.1,0.01,0.2,0.02,0.3
					c0-0.03,0,0.03,0,0.04c0,0.02,0,0.04,0,0.06c0,0.06,0.01,0.11,0.03,0.17c0,0.02,0.01,0.08,0.02,0.04c0-0.06-0.01,0.05-0.01,0.05
					c-0.01,0.04-0.01,0.1-0.01,0.13c-0.01,0.11-0.05,0.22-0.06,0.33c-0.01,0.2,0.05,0.4,0.11,0.58c0.06,0.2,0.21,0.41,0.41,0.49
					c0.13,0.05,0.27-0.05,0.31-0.17C30.5,85.49,30.41,85.37,30.28,85.32L30.28,85.32z"/>
			</g>
		</g>
		<g>
			<g>
				<path class="st2" d="M30.46,91.17c-0.09-0.02-0.19-0.04-0.29-0.04c-0.07,0-0.15,0.02-0.22,0.06c-0.09,0.06-0.15,0.16-0.15,0.27
					c0.01,0.19,0.15,0.35,0.32,0.43c0.17,0.07,0.35,0.09,0.53,0.1c0.15,0,0.33,0.03,0.46-0.06c0.09-0.05,0.13-0.15,0.12-0.25
					c-0.01-0.09-0.08-0.19-0.18-0.21c-0.26-0.04-0.51-0.07-0.77-0.01c-0.12,0.03-0.19,0.16-0.18,0.27c0.02,0.12,0.12,0.22,0.25,0.22
					c0.17-0.01,0.35,0.01,0.52,0.03c0.13,0.01,0.26-0.12,0.25-0.25c-0.01-0.15-0.11-0.24-0.25-0.25c-0.17-0.02-0.35-0.04-0.52-0.03
					c0.02,0.16,0.04,0.33,0.07,0.49c0.03-0.01,0.05-0.01,0.08-0.02c0.03-0.01-0.05,0-0.01,0c0.01,0,0.02,0,0.03,0
					c0.05,0,0.1,0,0.16,0c0.05,0,0.1,0.01,0.15,0.01c0.02,0,0.05,0.01,0.07,0.01c0.06,0.01-0.04-0.01-0.01,0
					c0.01,0,0.03,0,0.04,0.01c-0.02-0.15-0.04-0.3-0.06-0.46c-0.03,0.02,0.07-0.02,0.02-0.01c-0.06,0.01,0.06,0,0.01,0
					c-0.03,0-0.06,0-0.09,0c-0.06,0-0.12,0-0.17-0.01c-0.04,0-0.08,0-0.12-0.01c-0.02,0-0.05,0-0.07-0.01
					c0.04,0.01,0.04,0.01,0.02,0c-0.01,0-0.02,0-0.03-0.01c-0.03-0.01-0.05-0.01-0.08-0.02c-0.06-0.02,0.04,0.02,0,0
					c-0.01-0.01-0.03-0.02-0.04-0.02c-0.05-0.03,0.03,0.03,0,0c-0.01-0.01-0.01-0.01-0.02-0.02c-0.02-0.02-0.01-0.01,0.02,0.02
					c0-0.01-0.01-0.02-0.02-0.03c0.02,0.04,0.02,0.05,0.01,0.03c0-0.01,0-0.01,0-0.02c0.01,0.05,0.01,0.07,0.01,0.04
					c-0.01,0.05-0.01,0.07-0.01,0.05c-0.02,0.06-0.05,0.09-0.09,0.12c0.03-0.02-0.03,0.02-0.04,0.01c0,0,0.02-0.01,0.03-0.01
					c-0.07,0.02-0.06,0.01-0.03,0.01c0.01,0,0.02,0,0.03,0c0.01,0,0.02,0,0.04,0c0.04,0-0.07-0.01-0.03,0
					c0.04,0.01,0.07,0.01,0.11,0.02c0.13,0.03,0.28-0.04,0.31-0.17C30.67,91.35,30.6,91.21,30.46,91.17L30.46,91.17z"/>
			</g>
		</g>
		<g>
			<g>
				<path class="st2" d="M42.57,94.11c0.48,0.2,1.01,0.2,1.51,0.24c0.63,0.05,1.26,0.12,1.9,0.15c0.28,0.02,0.35-0.44,0.07-0.49
					c-0.47-0.09-0.95-0.24-1.43-0.24c-0.29,0-0.33,0.4-0.07,0.49c0.21,0.07,0.46,0.07,0.68,0.06c0.18-0.01,0.35-0.06,0.52,0.01
					c0.39,0.17,0.75,0.13,1.16,0.04c0.21-0.05,0.39,0.02,0.6,0.03c0.25,0.02,0.47,0.04,0.72,0.08c0.31,0.05,0.66,0.09,0.97,0.09
					c0.33,0,0.31-0.47,0-0.5c-0.02,0-0.04,0-0.07-0.01c0.06,0.02,0.12,0.05,0.18,0.07c-0.04-0.03-0.07-0.06-0.11-0.09
					c-0.02,0.15-0.04,0.3-0.06,0.46c0,0-0.01,0-0.01,0c0.29-0.01,0.33-0.4,0.07-0.49c-0.04-0.01-0.07-0.03-0.11-0.04
					c-0.02,0.16-0.04,0.33-0.07,0.49c0.03,0,0.06,0,0.09,0c-0.06-0.02-0.12-0.05-0.18-0.07c0.06,0.07,0.12,0.13,0.19,0.19
					c0.24,0.21,0.59-0.14,0.35-0.35c-0.15-0.14-0.23-0.27-0.46-0.26c-0.28,0.01-0.34,0.41-0.07,0.49c0.04,0.01,0.07,0.02,0.11,0.04
					c0.02-0.16,0.04-0.33,0.07-0.49c-0.04,0-0.08,0.01-0.12,0.02c-0.22,0.06-0.23,0.34-0.06,0.46c0.09,0.06,0.15,0.08,0.25,0.09
					c0-0.17,0-0.33,0-0.5c-0.15,0-0.31-0.04-0.46-0.05c-0.16-0.01-0.33-0.02-0.49-0.05c-0.21-0.04-0.4-0.06-0.62-0.07
					c-0.2-0.01-0.4-0.06-0.6-0.05c-0.19,0.01-0.37,0.08-0.57,0.09c-0.22,0.01-0.37-0.03-0.57-0.1c-0.38-0.14-0.81,0.07-1.2-0.07
					c-0.02,0.16-0.04,0.33-0.07,0.49c0.43-0.01,0.88,0.14,1.3,0.22c0.02-0.16,0.04-0.33,0.07-0.49c-0.6-0.03-1.2-0.09-1.8-0.14
					c-0.5-0.04-1.01-0.03-1.48-0.23C42.41,93.51,42.28,93.99,42.57,94.11L42.57,94.11z"/>
			</g>
		</g>
		<path id="SVGID_x5F_1_x5F_" class="st3" d="M36.78,29.63c0,0,15.56-5.66,39.6,0"/>
		<text>		<textPath  xlink:href="#SVGID_x5F_1_x5F_" startOffset="23.8281%">
<tspan  style="font-family:'SegoePrint'; font-size:7.5432px; letter-spacing:51;"></tspan>		</textPath>
</text>
		<path class="st0" d="M41.18,33.4c0,0,5.03-2.51,7.54-1.26c2.51,1.26,8.8,0,8.8,0s3.77-1.26,8.8,0c5.03,1.26,10.06,0,10.06,0"/>
		<path class="st0" d="M41.18,37.17c0,0,5.03-1.26,8.8,0c0,0,2.51,1.26,5.03,0"/>
		<path class="st0" d="M64.06,37.17c0,0,3.77-1.26,6.29,0c0,0,3.77,1.26,6.29,0"/>
		<path class="st0" d="M65.44,42.2c0,0,5.03-1.26,6.29,0c0,0,1.26,1.26,3.77,0"/>
	</g>
</g>
</svg>
